<svg xmlns="http://www.w3.org/2000/svg" fill="none" viewBox="0 0 640 320" height="320" width="640">
<rect fill-opacity="0.35" fill="#5B6B5F" transform="matrix(1 0 0 -1 116 287)" rx="12" height="242" width="409"></rect>
<rect fill-opacity="0.35" fill="#5B6B5F" transform="matrix(1 0 0 -1 100 271)" rx="12" height="242" width="440"></rect>
<rect fill="white" rx="16" height="253.819" width="472.044" y="1" x="84"></rect>
<path fill="#002B31" d="M109.46 40V26H111.64V40H109.46ZM120.918 40V33.32C120.918 32.5733 120.725 32.0333 120.338 31.7C119.951 31.3533 119.445 31.18 118.818 31.18C118.445 31.18 118.078 31.2533 117.718 31.4C117.371 31.5333 117.085 31.76 116.858 32.08C116.631 32.4 116.518 32.8267 116.518 33.36L116.198 31.38C116.358 30.94 116.605 30.5667 116.938 30.26C117.285 29.9533 117.685 29.72 118.138 29.56C118.605 29.3867 119.085 29.3 119.578 29.3C120.231 29.3 120.818 29.44 121.338 29.72C121.871 30 122.291 30.4133 122.598 30.96C122.918 31.4933 123.078 32.16 123.078 32.96V40H120.918ZM114.338 40V29.5H116.518V40H114.338ZM129.889 40.2C128.956 40.2 128.136 39.9933 127.429 39.58C126.722 39.1533 126.169 38.54 125.769 37.74C125.369 36.94 125.169 35.98 125.169 34.86C125.169 33.62 125.396 32.5933 125.849 31.78C126.302 30.9533 126.909 30.3333 127.669 29.92C128.429 29.5067 129.262 29.3 130.169 29.3C130.902 29.3 131.582 29.4467 132.209 29.74C132.849 30.02 133.376 30.4467 133.789 31.02C134.216 31.5933 134.476 32.3133 134.569 33.18H132.329C132.222 32.5267 131.969 32.04 131.569 31.72C131.169 31.3867 130.676 31.22 130.089 31.22C129.236 31.22 128.569 31.54 128.089 32.18C127.609 32.82 127.369 33.68 127.369 34.76C127.369 35.8667 127.616 36.7333 128.109 37.36C128.602 37.9867 129.249 38.3 130.049 38.3C130.662 38.3 131.169 38.1267 131.569 37.78C131.969 37.42 132.222 36.94 132.329 36.34H134.569C134.396 37.5533 133.889 38.5 133.049 39.18C132.222 39.86 131.169 40.2 129.889 40.2ZM141.125 40.2C140.245 40.2 139.425 39.9933 138.665 39.58C137.905 39.1533 137.298 38.54 136.845 37.74C136.392 36.9267 136.165 35.9333 136.165 34.76C136.165 33.5867 136.392 32.5933 136.845 31.78C137.312 30.9667 137.925 30.3533 138.685 29.94C139.445 29.5133 140.278 29.3 141.185 29.3C142.092 29.3 142.918 29.5133 143.665 29.94C144.425 30.3533 145.032 30.9667 145.485 31.78C145.938 32.5933 146.165 33.5867 146.165 34.76C146.165 35.9333 145.932 36.9267 145.465 37.74C145.012 38.54 144.405 39.1533 143.645 39.58C142.885 39.9933 142.045 40.2 141.125 40.2ZM141.145 38.3C142.038 38.3 142.732 37.98 143.225 37.34C143.718 36.6867 143.965 35.8267 143.965 34.76C143.965 33.6933 143.718 32.84 143.225 32.2C142.732 31.5467 142.045 31.22 141.165 31.22C140.298 31.22 139.612 31.5467 139.105 32.2C138.612 32.84 138.365 33.6933 138.365 34.76C138.365 35.8267 138.612 36.6867 139.105 37.34C139.598 37.98 140.278 38.3 141.145 38.3ZM148.303 40V29.5H150.483V40H148.303ZM150.483 34L150.063 32.1C150.236 31.42 150.53 30.8533 150.943 30.4C151.37 29.9467 151.89 29.6333 152.503 29.46C153.116 29.2867 153.79 29.28 154.523 29.44V31.62C153.216 31.3933 152.216 31.48 151.523 31.88C150.83 32.28 150.483 32.9867 150.483 34ZM156.115 44V29.5H158.295V31.02C158.682 30.46 159.149 30.0333 159.695 29.74C160.255 29.4467 160.862 29.3 161.515 29.3C162.315 29.3 163.062 29.5067 163.755 29.92C164.449 30.32 165.002 30.92 165.415 31.72C165.829 32.5067 166.035 33.4867 166.035 34.66C166.035 35.8467 165.815 36.8533 165.375 37.68C164.935 38.5067 164.355 39.1333 163.635 39.56C162.929 39.9867 162.162 40.2 161.335 40.2C160.749 40.2 160.189 40.0733 159.655 39.82C159.122 39.5533 158.669 39.1667 158.295 38.66V44H156.115ZM160.995 38.3C161.902 38.3 162.602 37.9667 163.095 37.3C163.602 36.6333 163.855 35.7733 163.855 34.72C163.855 33.64 163.609 32.7867 163.115 32.16C162.622 31.5333 161.949 31.22 161.095 31.22C160.175 31.22 159.462 31.5533 158.955 32.22C158.462 32.8733 158.215 33.7333 158.215 34.8C158.215 35.88 158.462 36.7333 158.955 37.36C159.449 37.9867 160.129 38.3 160.995 38.3ZM172.746 40.2C171.866 40.2 171.046 39.9933 170.286 39.58C169.526 39.1533 168.92 38.54 168.466 37.74C168.013 36.9267 167.786 35.9333 167.786 34.76C167.786 33.5867 168.013 32.5933 168.466 31.78C168.933 30.9667 169.546 30.3533 170.306 29.94C171.066 29.5133 171.9 29.3 172.806 29.3C173.713 29.3 174.54 29.5133 175.286 29.94C176.046 30.3533 176.653 30.9667 177.106 31.78C177.56 32.5933 177.786 33.5867 177.786 34.76C177.786 35.9333 177.553 36.9267 177.086 37.74C176.633 38.54 176.026 39.1533 175.266 39.58C174.506 39.9933 173.666 40.2 172.746 40.2ZM172.766 38.3C173.66 38.3 174.353 37.98 174.846 37.34C175.34 36.6867 175.586 35.8267 175.586 34.76C175.586 33.6933 175.34 32.84 174.846 32.2C174.353 31.5467 173.666 31.22 172.786 31.22C171.92 31.22 171.233 31.5467 170.726 32.2C170.233 32.84 169.986 33.6933 169.986 34.76C169.986 35.8267 170.233 36.6867 170.726 37.34C171.22 37.98 171.9 38.3 172.766 38.3ZM179.924 40V29.5H182.104V40H179.924ZM182.104 34L181.684 32.1C181.857 31.42 182.151 30.8533 182.564 30.4C182.991 29.9467 183.511 29.6333 184.124 29.46C184.737 29.2867 185.411 29.28 186.144 29.44V31.62C184.837 31.3933 183.837 31.48 183.144 31.88C182.451 32.28 182.104 32.9867 182.104 34ZM190.145 40.2C189.171 40.2 188.405 39.9267 187.845 39.38C187.285 38.8333 187.005 38.1267 187.005 37.26C187.005 36.5667 187.165 35.9933 187.485 35.54C187.805 35.0867 188.231 34.74 188.765 34.5C189.298 34.2467 189.891 34.08 190.545 34C190.931 33.96 191.251 33.92 191.505 33.88C191.771 33.84 192.005 33.8067 192.205 33.78C192.418 33.74 192.638 33.6933 192.865 33.64C193.091 33.5867 193.371 33.52 193.705 33.44V35.08C193.238 35.2133 192.771 35.3267 192.305 35.42C191.838 35.5 191.325 35.5733 190.765 35.64C190.205 35.7067 189.791 35.8733 189.525 36.14C189.258 36.3933 189.125 36.74 189.125 37.18C189.125 37.58 189.271 37.9133 189.565 38.18C189.858 38.4333 190.278 38.56 190.825 38.56C191.345 38.56 191.798 38.44 192.185 38.2C192.571 37.96 192.871 37.6533 193.085 37.28C193.298 36.8933 193.405 36.4867 193.405 36.06V33.1C193.405 32.4467 193.231 31.96 192.885 31.64C192.551 31.3067 192.085 31.14 191.485 31.14C190.965 31.14 190.518 31.2667 190.145 31.52C189.785 31.7733 189.511 32.16 189.325 32.68H187.125C187.271 31.96 187.565 31.3467 188.005 30.84C188.458 30.3333 188.998 29.9533 189.625 29.7C190.265 29.4333 190.951 29.3 191.685 29.3C192.391 29.3 193.038 29.4333 193.625 29.7C194.211 29.9667 194.678 30.36 195.025 30.88C195.371 31.4 195.545 32.0467 195.545 32.82V37.6C195.545 38.0267 195.551 38.4267 195.565 38.8C195.591 39.16 195.678 39.56 195.825 40H193.645C193.565 39.8133 193.505 39.5867 193.465 39.32C193.425 39.04 193.405 38.78 193.405 38.54C193.218 39.0333 192.818 39.4333 192.205 39.74C191.591 40.0467 190.905 40.2 190.145 40.2ZM202.275 40.1C201.128 40.1 200.281 39.8 199.735 39.2C199.201 38.5867 198.935 37.6933 198.935 36.52V27H201.115V36.28C201.115 36.8667 201.221 37.3333 201.435 37.68C201.661 38.0133 202.108 38.18 202.775 38.18C203.081 38.18 203.321 38.16 203.495 38.12C203.681 38.08 203.775 38.06 203.775 38.06V39.96C203.775 39.96 203.621 39.98 203.315 40.02C203.021 40.0733 202.675 40.1 202.275 40.1ZM196.955 31.38V29.5H203.775V31.38H196.955ZM209.836 40.2C208.796 40.2 207.902 39.9867 207.156 39.56C206.422 39.12 205.862 38.5 205.476 37.7C205.089 36.8867 204.896 35.94 204.896 34.86C204.896 33.6333 205.122 32.6067 205.576 31.78C206.029 30.9533 206.629 30.3333 207.376 29.92C208.136 29.5067 208.969 29.3 209.876 29.3C210.729 29.3 211.502 29.4867 212.196 29.86C212.889 30.22 213.442 30.7933 213.856 31.58C214.282 32.3533 214.496 33.36 214.496 34.6C214.496 34.84 214.489 35.0133 214.476 35.12C214.476 35.2267 214.476 35.28 214.476 35.28H206.336V33.66H213.276L212.336 34.52C212.402 33.68 212.329 33.0133 212.116 32.52C211.902 32.0267 211.596 31.6667 211.196 31.44C210.796 31.2 210.349 31.08 209.856 31.08C208.989 31.08 208.302 31.4 207.796 32.04C207.302 32.6667 207.056 33.5733 207.056 34.76C207.056 35.8533 207.302 36.7267 207.796 37.38C208.289 38.02 209.002 38.34 209.936 38.34C210.536 38.34 211.029 38.2133 211.416 37.96C211.816 37.6933 212.082 37.3267 212.216 36.86H214.436C214.182 37.9267 213.642 38.7533 212.816 39.34C211.989 39.9133 210.996 40.2 209.836 40.2Z"></path>
<path fill="#002B31" d="M109.911 75.607V74.385H112.485C112.97 74.385 113.373 74.255 113.694 73.995C114.015 73.735 114.175 73.319 114.175 72.747C114.175 72.1837 114.015 71.772 113.694 71.512C113.373 71.252 112.97 71.122 112.485 71.122H109.911V69.9H112.563C113.204 69.9 113.75 70.0127 114.201 70.238C114.652 70.4633 114.998 70.7883 115.241 71.213C115.484 71.629 115.605 72.1273 115.605 72.708C115.605 73.3407 115.471 73.8737 115.202 74.307C114.942 74.7403 114.582 75.0653 114.123 75.282C113.672 75.4987 113.152 75.607 112.563 75.607H109.911ZM108.949 79V69.9H110.366V79H108.949ZM117.659 71.161C117.416 71.161 117.213 71.0787 117.048 70.914C116.892 70.7493 116.814 70.5457 116.814 70.303C116.814 70.069 116.892 69.8697 117.048 69.705C117.213 69.5403 117.416 69.458 117.659 69.458C117.893 69.458 118.088 69.5403 118.244 69.705C118.409 69.8697 118.491 70.069 118.491 70.303C118.491 70.5457 118.409 70.7493 118.244 70.914C118.088 71.0787 117.893 71.161 117.659 71.161ZM116.944 79V72.175H118.361V79H116.944ZM122.825 79.13C122.218 79.13 121.685 78.9957 121.226 78.727C120.766 78.4497 120.407 78.051 120.147 77.531C119.887 77.011 119.757 76.387 119.757 75.659C119.757 74.853 119.904 74.1857 120.199 73.657C120.493 73.1197 120.888 72.7167 121.382 72.448C121.876 72.1793 122.417 72.045 123.007 72.045C123.483 72.045 123.925 72.1403 124.333 72.331C124.749 72.513 125.091 72.7903 125.36 73.163C125.637 73.5357 125.806 74.0037 125.867 74.567H124.411C124.341 74.1423 124.177 73.826 123.917 73.618C123.657 73.4013 123.336 73.293 122.955 73.293C122.4 73.293 121.967 73.501 121.655 73.917C121.343 74.333 121.187 74.892 121.187 75.594C121.187 76.3133 121.347 76.8767 121.668 77.284C121.988 77.6913 122.409 77.895 122.929 77.895C123.327 77.895 123.657 77.7823 123.917 77.557C124.177 77.323 124.341 77.011 124.411 76.621H125.867C125.754 77.4097 125.425 78.025 124.879 78.467C124.341 78.909 123.657 79.13 122.825 79.13ZM129.23 75.906L128.177 75.334L131.518 72.175H133.143L129.23 75.906ZM127.189 79V69.9H128.606V79H127.189ZM131.44 79L128.411 75.386L129.594 74.866L133.156 79H131.44ZM138.961 79.13C138.329 79.13 137.83 78.9523 137.466 78.597C137.102 78.2417 136.92 77.7823 136.92 77.219C136.92 76.7683 137.024 76.3957 137.232 76.101C137.44 75.8063 137.718 75.581 138.064 75.425C138.411 75.2603 138.797 75.152 139.221 75.1C139.473 75.074 139.681 75.048 139.845 75.022C140.019 74.996 140.17 74.9743 140.3 74.957C140.439 74.931 140.582 74.9007 140.729 74.866C140.877 74.8313 141.059 74.788 141.275 74.736V75.802C140.972 75.8887 140.669 75.9623 140.365 76.023C140.062 76.075 139.728 76.1227 139.364 76.166C139 76.2093 138.732 76.3177 138.558 76.491C138.385 76.6557 138.298 76.881 138.298 77.167C138.298 77.427 138.394 77.6437 138.584 77.817C138.775 77.9817 139.048 78.064 139.403 78.064C139.741 78.064 140.036 77.986 140.287 77.83C140.539 77.674 140.734 77.4747 140.872 77.232C141.011 76.9807 141.08 76.7163 141.08 76.439V74.515C141.08 74.0903 140.968 73.774 140.742 73.566C140.526 73.3493 140.222 73.241 139.832 73.241C139.494 73.241 139.204 73.3233 138.961 73.488C138.727 73.6527 138.55 73.904 138.428 74.242H136.998C137.094 73.774 137.284 73.3753 137.57 73.046C137.865 72.7167 138.216 72.4697 138.623 72.305C139.039 72.1317 139.486 72.045 139.962 72.045C140.422 72.045 140.842 72.1317 141.223 72.305C141.605 72.4783 141.908 72.734 142.133 73.072C142.359 73.41 142.471 73.8303 142.471 74.333V77.44C142.471 77.7173 142.476 77.9773 142.484 78.22C142.502 78.454 142.558 78.714 142.653 79H141.236C141.184 78.8787 141.145 78.7313 141.119 78.558C141.093 78.376 141.08 78.207 141.08 78.051C140.959 78.3717 140.699 78.6317 140.3 78.831C139.902 79.0303 139.455 79.13 138.961 79.13ZM151.474 79V74.658C151.474 74.1727 151.348 73.8217 151.097 73.605C150.846 73.3797 150.516 73.267 150.109 73.267C149.866 73.267 149.628 73.3147 149.394 73.41C149.169 73.4967 148.982 73.644 148.835 73.852C148.688 74.06 148.614 74.3373 148.614 74.684L148.406 73.397C148.51 73.111 148.67 72.8683 148.887 72.669C149.112 72.4697 149.372 72.318 149.667 72.214C149.97 72.1013 150.282 72.045 150.603 72.045C151.028 72.045 151.409 72.136 151.747 72.318C152.094 72.5 152.367 72.7687 152.566 73.124C152.774 73.4707 152.878 73.904 152.878 74.424V79H151.474ZM147.197 79V72.175H148.614V79H147.197ZM156.265 79.13C155.632 79.13 155.134 78.9523 154.77 78.597C154.406 78.2417 154.224 77.7823 154.224 77.219C154.224 76.7683 154.328 76.3957 154.536 76.101C154.744 75.8063 155.021 75.581 155.368 75.425C155.715 75.2603 156.1 75.152 156.525 75.1C156.776 75.074 156.984 75.048 157.149 75.022C157.322 74.996 157.474 74.9743 157.604 74.957C157.743 74.931 157.886 74.9007 158.033 74.866C158.18 74.8313 158.362 74.788 158.579 74.736V75.802C158.276 75.8887 157.972 75.9623 157.669 76.023C157.366 76.075 157.032 76.1227 156.668 76.166C156.304 76.2093 156.035 76.3177 155.862 76.491C155.689 76.6557 155.602 76.881 155.602 77.167C155.602 77.427 155.697 77.6437 155.888 77.817C156.079 77.9817 156.352 78.064 156.707 78.064C157.045 78.064 157.34 77.986 157.591 77.83C157.842 77.674 158.037 77.4747 158.176 77.232C158.315 76.9807 158.384 76.7163 158.384 76.439V74.515C158.384 74.0903 158.271 73.774 158.046 73.566C157.829 73.3493 157.526 73.241 157.136 73.241C156.798 73.241 156.508 73.3233 156.265 73.488C156.031 73.6527 155.853 73.904 155.732 74.242H154.302C154.397 73.774 154.588 73.3753 154.874 73.046C155.169 72.7167 155.52 72.4697 155.927 72.305C156.343 72.1317 156.789 72.045 157.266 72.045C157.725 72.045 158.146 72.1317 158.527 72.305C158.908 72.4783 159.212 72.734 159.437 73.072C159.662 73.41 159.775 73.8303 159.775 74.333V77.44C159.775 77.7173 159.779 77.9773 159.788 78.22C159.805 78.454 159.862 78.714 159.957 79H158.54C158.488 78.8787 158.449 78.7313 158.423 78.558C158.397 78.376 158.384 78.207 158.384 78.051C158.263 78.3717 158.003 78.6317 157.604 78.831C157.205 79.0303 156.759 79.13 156.265 79.13ZM161.365 79V72.175H162.782V79H161.365ZM165.369 79V74.541C165.369 74.125 165.256 73.8087 165.031 73.592C164.814 73.3753 164.515 73.267 164.134 73.267C163.926 73.267 163.714 73.3103 163.497 73.397C163.289 73.475 163.116 73.6093 162.977 73.8C162.847 73.9907 162.782 74.2463 162.782 74.567L162.574 73.397C162.73 72.9637 162.999 72.63 163.38 72.396C163.761 72.162 164.177 72.045 164.628 72.045C165.018 72.045 165.373 72.1317 165.694 72.305C166.023 72.4697 166.283 72.7253 166.474 73.072C166.665 73.41 166.76 73.826 166.76 74.32V79H165.369ZM169.347 79V74.541C169.347 74.1337 169.234 73.8217 169.009 73.605C168.784 73.3797 168.48 73.267 168.099 73.267C167.9 73.267 167.692 73.3103 167.475 73.397C167.267 73.4837 167.094 73.6223 166.955 73.813C166.825 73.995 166.76 74.2463 166.76 74.567L166.396 73.397C166.552 72.9723 166.829 72.643 167.228 72.409C167.635 72.1663 168.073 72.045 168.541 72.045C168.957 72.045 169.33 72.136 169.659 72.318C169.997 72.4913 170.261 72.747 170.452 73.085C170.651 73.423 170.751 73.8347 170.751 74.32V79H169.347ZM175.323 79.13C174.647 79.13 174.066 78.9913 173.581 78.714C173.104 78.428 172.74 78.025 172.489 77.505C172.238 76.9763 172.112 76.361 172.112 75.659C172.112 74.8617 172.259 74.1943 172.554 73.657C172.849 73.1197 173.239 72.7167 173.724 72.448C174.218 72.1793 174.76 72.045 175.349 72.045C175.904 72.045 176.406 72.1663 176.857 72.409C177.308 72.643 177.667 73.0157 177.936 73.527C178.213 74.0297 178.352 74.684 178.352 75.49C178.352 75.646 178.348 75.7587 178.339 75.828C178.339 75.8973 178.339 75.932 178.339 75.932H173.048V74.879H177.559L176.948 75.438C176.991 74.892 176.944 74.4587 176.805 74.138C176.666 73.8173 176.467 73.5833 176.207 73.436C175.947 73.28 175.657 73.202 175.336 73.202C174.773 73.202 174.326 73.41 173.997 73.826C173.676 74.2333 173.516 74.8227 173.516 75.594C173.516 76.3047 173.676 76.8723 173.997 77.297C174.318 77.713 174.781 77.921 175.388 77.921C175.778 77.921 176.099 77.8387 176.35 77.674C176.61 77.5007 176.783 77.2623 176.87 76.959H178.313C178.148 77.6523 177.797 78.1897 177.26 78.571C176.723 78.9437 176.077 79.13 175.323 79.13Z"></path>
<rect fill-opacity="0.01" fill="white" transform="translate(189.492 69.7541)" height="10.4918" width="10.4918"></rect>
<path fill-opacity="0.5" fill="#304037" d="M192.062 78.4973L192.526 78.0336L195.56 75L192.526 71.9664L192.062 71.5027L192.99 70.5754L193.454 71.0391L196.951 74.5363L197.414 75L196.951 75.4637L193.454 78.9609L192.99 79.4246L192.062 78.4973Z" clip-rule="evenodd" fill-rule="evenodd"></path>
<path fill-opacity="0.5" fill="#304037" d="M212.477 75.243V74.021H215.129C215.58 74.021 215.953 73.904 216.247 73.67C216.551 73.436 216.702 73.0677 216.702 72.565C216.702 72.0623 216.551 71.6983 216.247 71.473C215.953 71.239 215.58 71.122 215.129 71.122H212.477V69.9H215.22C215.758 69.9 216.247 70.004 216.689 70.212C217.131 70.4113 217.482 70.7103 217.742 71.109C218.011 71.499 218.145 71.9843 218.145 72.565C218.145 73.1457 218.011 73.6353 217.742 74.034C217.482 74.4327 217.131 74.736 216.689 74.944C216.247 75.1433 215.758 75.243 215.22 75.243H212.477ZM216.767 79L213.088 75.009L214.414 74.541L218.613 79H216.767ZM211.424 79V69.9H212.841V79H211.424ZM222.383 79.13C221.707 79.13 221.127 78.9913 220.641 78.714C220.165 78.428 219.801 78.025 219.549 77.505C219.298 76.9763 219.172 76.361 219.172 75.659C219.172 74.8617 219.32 74.1943 219.614 73.657C219.909 73.1197 220.299 72.7167 220.784 72.448C221.278 72.1793 221.82 72.045 222.409 72.045C222.964 72.045 223.467 72.1663 223.917 72.409C224.368 72.643 224.728 73.0157 224.996 73.527C225.274 74.0297 225.412 74.684 225.412 75.49C225.412 75.646 225.408 75.7587 225.399 75.828C225.399 75.8973 225.399 75.932 225.399 75.932H220.108V74.879H224.619L224.008 75.438C224.052 74.892 224.004 74.4587 223.865 74.138C223.727 73.8173 223.527 73.5833 223.267 73.436C223.007 73.28 222.717 73.202 222.396 73.202C221.833 73.202 221.387 73.41 221.057 73.826C220.737 74.2333 220.576 74.8227 220.576 75.594C220.576 76.3047 220.737 76.8723 221.057 77.297C221.378 77.713 221.842 77.921 222.448 77.921C222.838 77.921 223.159 77.8387 223.41 77.674C223.67 77.5007 223.844 77.2623 223.93 76.959H225.373C225.209 77.6523 224.858 78.1897 224.32 78.571C223.783 78.9437 223.137 79.13 222.383 79.13ZM228.308 79L225.903 72.175H227.372L229.439 78.129H228.958L230.999 72.175H232.416L230.011 79H228.308ZM234.086 71.161C233.844 71.161 233.64 71.0787 233.475 70.914C233.319 70.7493 233.241 70.5457 233.241 70.303C233.241 70.069 233.319 69.8697 233.475 69.705C233.64 69.5403 233.844 69.458 234.086 69.458C234.32 69.458 234.515 69.5403 234.671 69.705C234.836 69.8697 234.918 70.069 234.918 70.303C234.918 70.5457 234.836 70.7493 234.671 70.914C234.515 71.0787 234.32 71.161 234.086 71.161ZM233.371 79V72.175H234.788V79H233.371ZM239.395 79.13C238.719 79.13 238.138 78.9913 237.653 78.714C237.176 78.428 236.812 78.025 236.561 77.505C236.31 76.9763 236.184 76.361 236.184 75.659C236.184 74.8617 236.331 74.1943 236.626 73.657C236.921 73.1197 237.311 72.7167 237.796 72.448C238.29 72.1793 238.832 72.045 239.421 72.045C239.976 72.045 240.478 72.1663 240.929 72.409C241.38 72.643 241.739 73.0157 242.008 73.527C242.285 74.0297 242.424 74.684 242.424 75.49C242.424 75.646 242.42 75.7587 242.411 75.828C242.411 75.8973 242.411 75.932 242.411 75.932H237.12V74.879H241.631L241.02 75.438C241.063 74.892 241.016 74.4587 240.877 74.138C240.738 73.8173 240.539 73.5833 240.279 73.436C240.019 73.28 239.729 73.202 239.408 73.202C238.845 73.202 238.398 73.41 238.069 73.826C237.748 74.2333 237.588 74.8227 237.588 75.594C237.588 76.3047 237.748 76.8723 238.069 77.297C238.39 77.713 238.853 77.921 239.46 77.921C239.85 77.921 240.171 77.8387 240.422 77.674C240.682 77.5007 240.855 77.2623 240.942 76.959H242.385C242.22 77.6523 241.869 78.1897 241.332 78.571C240.795 78.9437 240.149 79.13 239.395 79.13ZM245.003 79L243.131 72.175H244.561L246.082 77.934H245.679L247.421 72.175H248.877L250.606 77.934H250.203L251.711 72.175H253.089L251.217 79H249.618L247.928 73.436H248.292L246.602 79H245.003ZM258.956 79.13C258.324 79.13 257.825 78.9523 257.461 78.597C257.097 78.2417 256.915 77.7823 256.915 77.219C256.915 76.7683 257.019 76.3957 257.227 76.101C257.435 75.8063 257.713 75.581 258.059 75.425C258.406 75.2603 258.792 75.152 259.216 75.1C259.468 75.074 259.676 75.048 259.84 75.022C260.014 74.996 260.165 74.9743 260.295 74.957C260.434 74.931 260.577 74.9007 260.724 74.866C260.872 74.8313 261.054 74.788 261.27 74.736V75.802C260.967 75.8887 260.664 75.9623 260.36 76.023C260.057 76.075 259.723 76.1227 259.359 76.166C258.995 76.2093 258.727 76.3177 258.553 76.491C258.38 76.6557 258.293 76.881 258.293 77.167C258.293 77.427 258.389 77.6437 258.579 77.817C258.77 77.9817 259.043 78.064 259.398 78.064C259.736 78.064 260.031 77.986 260.282 77.83C260.534 77.674 260.729 77.4747 260.867 77.232C261.006 76.9807 261.075 76.7163 261.075 76.439V74.515C261.075 74.0903 260.963 73.774 260.737 73.566C260.521 73.3493 260.217 73.241 259.827 73.241C259.489 73.241 259.199 73.3233 258.956 73.488C258.722 73.6527 258.545 73.904 258.423 74.242H256.993C257.089 73.774 257.279 73.3753 257.565 73.046C257.86 72.7167 258.211 72.4697 258.618 72.305C259.034 72.1317 259.481 72.045 259.957 72.045C260.417 72.045 260.837 72.1317 261.218 72.305C261.6 72.4783 261.903 72.734 262.128 73.072C262.354 73.41 262.466 73.8303 262.466 74.333V77.44C262.466 77.7173 262.471 77.9773 262.479 78.22C262.497 78.454 262.553 78.714 262.648 79H261.231C261.179 78.8787 261.14 78.7313 261.114 78.558C261.088 78.376 261.075 78.207 261.075 78.051C260.954 78.3717 260.694 78.6317 260.295 78.831C259.897 79.0303 259.45 79.13 258.956 79.13ZM268.333 79V74.658C268.333 74.1727 268.207 73.8217 267.956 73.605C267.705 73.3797 267.375 73.267 266.968 73.267C266.725 73.267 266.487 73.3147 266.253 73.41C266.028 73.4967 265.841 73.644 265.694 73.852C265.547 74.06 265.473 74.3373 265.473 74.684L265.265 73.397C265.369 73.111 265.529 72.8683 265.746 72.669C265.971 72.4697 266.231 72.318 266.526 72.214C266.829 72.1013 267.141 72.045 267.462 72.045C267.887 72.045 268.268 72.136 268.606 72.318C268.953 72.5 269.226 72.7687 269.425 73.124C269.633 73.4707 269.737 73.904 269.737 74.424V79H268.333ZM264.056 79V72.175H265.473V79H264.056ZM274.021 79.13C273.51 79.13 273.029 79 272.578 78.74C272.136 78.48 271.777 78.0943 271.499 77.583C271.231 77.0717 271.096 76.4433 271.096 75.698C271.096 74.9267 271.239 74.2767 271.525 73.748C271.82 73.2193 272.201 72.8163 272.669 72.539C273.137 72.2617 273.636 72.123 274.164 72.123C274.546 72.123 274.905 72.2097 275.243 72.383C275.59 72.5477 275.885 72.799 276.127 73.137V69.9H277.544V77.466C277.544 77.7433 277.553 77.999 277.57 78.233C277.588 78.467 277.64 78.7227 277.726 79H276.283C276.223 78.8527 276.179 78.6923 276.153 78.519C276.136 78.337 276.127 78.168 276.127 78.012C275.867 78.3673 275.555 78.6447 275.191 78.844C274.836 79.0347 274.446 79.13 274.021 79.13ZM274.32 77.908C274.91 77.908 275.365 77.6957 275.685 77.271C276.015 76.8377 276.179 76.283 276.179 75.607C276.179 74.9137 276.019 74.3677 275.698 73.969C275.378 73.5617 274.94 73.358 274.385 73.358C273.796 73.358 273.337 73.5703 273.007 73.995C272.687 74.4197 272.526 74.9743 272.526 75.659C272.526 76.3437 272.682 76.8897 272.994 77.297C273.315 77.7043 273.757 77.908 274.32 77.908ZM283.027 79V71.941C283.027 71.2217 283.235 70.654 283.651 70.238C284.067 69.822 284.63 69.614 285.341 69.614C285.523 69.614 285.666 69.6227 285.77 69.64C285.883 69.6573 285.939 69.666 285.939 69.666V70.823C285.939 70.823 285.9 70.8187 285.822 70.81C285.744 70.7927 285.636 70.784 285.497 70.784C285.142 70.784 284.877 70.8707 284.704 71.044C284.539 71.2173 284.457 71.4773 284.457 71.824V79H283.027ZM281.753 73.397V72.175H287.655V73.397H281.753ZM287.044 79V72.175H288.461V79H287.044ZM287.772 71.161C287.521 71.161 287.313 71.0787 287.148 70.914C286.992 70.7493 286.914 70.5457 286.914 70.303C286.914 70.069 286.992 69.8697 287.148 69.705C287.313 69.5403 287.521 69.458 287.772 69.458C288.006 69.458 288.201 69.5403 288.357 69.705C288.513 69.8697 288.591 70.069 288.591 70.303C288.591 70.5457 288.513 70.7493 288.357 70.914C288.201 71.0787 288.006 71.161 287.772 71.161ZM290.224 79C290.189 78.8527 290.159 78.688 290.133 78.506C290.107 78.324 290.094 78.0683 290.094 77.739V69.9H291.511V77.479C291.511 77.843 291.52 78.1247 291.537 78.324C291.554 78.5233 291.589 78.7487 291.641 79H290.224ZM296.118 79.13C295.442 79.13 294.861 78.9913 294.376 78.714C293.899 78.428 293.535 78.025 293.284 77.505C293.032 76.9763 292.907 76.361 292.907 75.659C292.907 74.8617 293.054 74.1943 293.349 73.657C293.643 73.1197 294.033 72.7167 294.519 72.448C295.013 72.1793 295.554 72.045 296.144 72.045C296.698 72.045 297.201 72.1663 297.652 72.409C298.102 72.643 298.462 73.0157 298.731 73.527C299.008 74.0297 299.147 74.684 299.147 75.49C299.147 75.646 299.142 75.7587 299.134 75.828C299.134 75.8973 299.134 75.932 299.134 75.932H293.843V74.879H298.354L297.743 75.438C297.786 74.892 297.738 74.4587 297.6 74.138C297.461 73.8173 297.262 73.5833 297.002 73.436C296.742 73.28 296.451 73.202 296.131 73.202C295.567 73.202 295.121 73.41 294.792 73.826C294.471 74.2333 294.311 74.8227 294.311 75.594C294.311 76.3047 294.471 76.8723 294.792 77.297C295.112 77.713 295.576 77.921 296.183 77.921C296.573 77.921 296.893 77.8387 297.145 77.674C297.405 77.5007 297.578 77.2623 297.665 76.959H299.108C298.943 77.6523 298.592 78.1897 298.055 78.571C297.517 78.9437 296.872 79.13 296.118 79.13Z"></path>
<rect fill-opacity="0.01" fill="white" transform="translate(310.967 69.7541)" height="10.4918" width="10.4918"></rect>
<path fill-opacity="0.5" fill="#304037" d="M313.538 78.4973L314.002 78.0336L317.035 75L314.002 71.9664L313.538 71.5027L314.465 70.5754L314.929 71.0391L318.426 74.5363L318.89 75L318.426 75.4637L314.929 78.9609L314.465 79.4246L313.538 78.4973Z" clip-rule="evenodd" fill-rule="evenodd"></path>
<path fill-opacity="0.5" fill="#304037" d="M333.953 75.243V74.021H336.605C337.056 74.021 337.428 73.904 337.723 73.67C338.026 73.436 338.178 73.0677 338.178 72.565C338.178 72.0623 338.026 71.6983 337.723 71.473C337.428 71.239 337.056 71.122 336.605 71.122H333.953V69.9H336.696C337.233 69.9 337.723 70.004 338.165 70.212C338.607 70.4113 338.958 70.7103 339.218 71.109C339.487 71.499 339.621 71.9843 339.621 72.565C339.621 73.1457 339.487 73.6353 339.218 74.034C338.958 74.4327 338.607 74.736 338.165 74.944C337.723 75.1433 337.233 75.243 336.696 75.243H333.953ZM338.243 79L334.564 75.009L335.89 74.541L340.089 79H338.243ZM332.9 79V69.9H334.317V79H332.9ZM343.155 79.143C342.748 79.143 342.375 79.052 342.037 78.87C341.699 78.688 341.431 78.4237 341.231 78.077C341.032 77.7217 340.932 77.2883 340.932 76.777V72.175H342.349V76.556C342.349 77.024 342.475 77.3707 342.726 77.596C342.978 77.8213 343.294 77.934 343.675 77.934C343.918 77.934 344.148 77.8863 344.364 77.791C344.581 77.687 344.763 77.5223 344.91 77.297C345.058 77.0717 345.131 76.7857 345.131 76.439L345.274 77.817C345.196 78.103 345.045 78.3457 344.819 78.545C344.603 78.7443 344.347 78.896 344.052 79C343.758 79.0953 343.459 79.143 343.155 79.143ZM345.3 79C345.24 78.844 345.196 78.675 345.17 78.493C345.153 78.311 345.144 78.1463 345.144 77.999V77.739L345.131 77.57V72.175H346.548V77.44C346.548 77.726 346.553 77.986 346.561 78.22C346.579 78.4453 346.631 78.7053 346.717 79H345.3ZM352.459 79V74.658C352.459 74.1727 352.333 73.8217 352.082 73.605C351.831 73.3797 351.501 73.267 351.094 73.267C350.851 73.267 350.613 73.3147 350.379 73.41C350.154 73.4967 349.967 73.644 349.82 73.852C349.673 74.06 349.599 74.3373 349.599 74.684L349.391 73.397C349.495 73.111 349.655 72.8683 349.872 72.669C350.097 72.4697 350.357 72.318 350.652 72.214C350.955 72.1013 351.267 72.045 351.588 72.045C352.013 72.045 352.394 72.136 352.732 72.318C353.079 72.5 353.352 72.7687 353.551 73.124C353.759 73.4707 353.863 73.904 353.863 74.424V79H352.459ZM348.182 79V72.175H349.599V79H348.182ZM359.034 81.73C358.809 81.73 358.64 81.717 358.527 81.691C358.423 81.665 358.371 81.652 358.371 81.652V80.417C358.371 80.417 358.427 80.43 358.54 80.456C358.653 80.482 358.791 80.495 358.956 80.495C359.363 80.495 359.675 80.3953 359.892 80.196C360.109 79.9967 360.291 79.6933 360.438 79.286L363.09 72.175H364.507L361.647 79.728C361.491 80.118 361.309 80.4647 361.101 80.768C360.893 81.0713 360.624 81.3053 360.295 81.47C359.966 81.6433 359.545 81.73 359.034 81.73ZM361.01 79.962L358.02 72.175H359.489L361.699 77.934L361.01 79.962ZM368.247 79.13C367.675 79.13 367.142 78.9957 366.648 78.727C366.154 78.4497 365.76 78.051 365.465 77.531C365.17 77.0023 365.023 76.3567 365.023 75.594C365.023 74.8313 365.17 74.1857 365.465 73.657C365.768 73.1283 366.167 72.7297 366.661 72.461C367.155 72.1837 367.697 72.045 368.286 72.045C368.875 72.045 369.413 72.1837 369.898 72.461C370.392 72.7297 370.786 73.1283 371.081 73.657C371.376 74.1857 371.523 74.8313 371.523 75.594C371.523 76.3567 371.371 77.0023 371.068 77.531C370.773 78.051 370.379 78.4497 369.885 78.727C369.391 78.9957 368.845 79.13 368.247 79.13ZM368.26 77.895C368.841 77.895 369.291 77.687 369.612 77.271C369.933 76.8463 370.093 76.2873 370.093 75.594C370.093 74.9007 369.933 74.346 369.612 73.93C369.291 73.5053 368.845 73.293 368.273 73.293C367.71 73.293 367.263 73.5053 366.934 73.93C366.613 74.346 366.453 74.9007 366.453 75.594C366.453 76.2873 366.613 76.8463 366.934 77.271C367.255 77.687 367.697 77.895 368.26 77.895ZM375.11 79.143C374.702 79.143 374.33 79.052 373.992 78.87C373.654 78.688 373.385 78.4237 373.186 78.077C372.986 77.7217 372.887 77.2883 372.887 76.777V72.175H374.304V76.556C374.304 77.024 374.429 77.3707 374.681 77.596C374.932 77.8213 375.248 77.934 375.63 77.934C375.872 77.934 376.102 77.8863 376.319 77.791C376.535 77.687 376.717 77.5223 376.865 77.297C377.012 77.0717 377.086 76.7857 377.086 76.439L377.229 77.817C377.151 78.103 376.999 78.3457 376.774 78.545C376.557 78.7443 376.301 78.896 376.007 79C375.712 79.0953 375.413 79.143 375.11 79.143ZM377.255 79C377.194 78.844 377.151 78.675 377.125 78.493C377.107 78.311 377.099 78.1463 377.099 77.999V77.739L377.086 77.57V72.175H378.503V77.44C378.503 77.726 378.507 77.986 378.516 78.22C378.533 78.4453 378.585 78.7053 378.672 79H377.255ZM380.136 79V72.175H381.553V79H380.136ZM381.553 75.1L381.28 73.865C381.393 73.423 381.583 73.0547 381.852 72.76C382.129 72.4653 382.467 72.2617 382.866 72.149C383.265 72.0363 383.702 72.032 384.179 72.136V73.553C383.33 73.4057 382.68 73.462 382.229 73.722C381.778 73.982 381.553 74.4413 381.553 75.1ZM391.73 79.13C391.34 79.13 390.967 79.0433 390.612 78.87C390.265 78.6967 389.966 78.4367 389.715 78.09L389.624 79H388.35V69.9H389.767V73.228C390.018 72.8727 390.322 72.5997 390.677 72.409C391.041 72.2183 391.431 72.123 391.847 72.123C392.376 72.123 392.861 72.2573 393.303 72.526C393.754 72.786 394.113 73.1717 394.382 73.683C394.651 74.1943 394.785 74.8227 394.785 75.568C394.785 76.3307 394.642 76.9807 394.356 77.518C394.079 78.0467 393.706 78.4497 393.238 78.727C392.779 78.9957 392.276 79.13 391.73 79.13ZM391.522 77.908C392.103 77.908 392.558 77.6957 392.887 77.271C393.216 76.8377 393.381 76.283 393.381 75.607C393.381 74.9137 393.216 74.3677 392.887 73.969C392.566 73.5617 392.129 73.358 391.574 73.358C390.985 73.358 390.525 73.5703 390.196 73.995C389.875 74.4197 389.715 74.9743 389.715 75.659C389.715 76.3523 389.871 76.9027 390.183 77.31C390.504 77.7087 390.95 77.908 391.522 77.908ZM398.38 79.143C397.973 79.143 397.6 79.052 397.262 78.87C396.924 78.688 396.655 78.4237 396.456 78.077C396.257 77.7217 396.157 77.2883 396.157 76.777V72.175H397.574V76.556C397.574 77.024 397.7 77.3707 397.951 77.596C398.202 77.8213 398.519 77.934 398.9 77.934C399.143 77.934 399.372 77.8863 399.589 77.791C399.806 77.687 399.988 77.5223 400.135 77.297C400.282 77.0717 400.356 76.7857 400.356 76.439L400.499 77.817C400.421 78.103 400.269 78.3457 400.044 78.545C399.827 78.7443 399.572 78.896 399.277 79C398.982 79.0953 398.683 79.143 398.38 79.143ZM400.525 79C400.464 78.844 400.421 78.675 400.395 78.493C400.378 78.311 400.369 78.1463 400.369 77.999V77.739L400.356 77.57V72.175H401.773V77.44C401.773 77.726 401.777 77.986 401.786 78.22C401.803 78.4453 401.855 78.7053 401.942 79H400.525ZM405.942 79.13C405.309 79.13 404.78 79.0303 404.356 78.831C403.931 78.623 403.606 78.3543 403.381 78.025C403.164 77.687 403.034 77.3273 402.991 76.946H404.369C404.438 77.2667 404.603 77.5267 404.863 77.726C405.123 77.9253 405.491 78.025 405.968 78.025C406.375 78.025 406.696 77.9513 406.93 77.804C407.172 77.648 407.294 77.427 407.294 77.141C407.294 76.8117 407.146 76.5907 406.852 76.478C406.557 76.3653 406.154 76.2743 405.643 76.205C405.357 76.1703 405.071 76.1183 404.785 76.049C404.499 75.9797 404.234 75.8757 403.992 75.737C403.758 75.5983 403.567 75.412 403.42 75.178C403.281 74.9353 403.212 74.6233 403.212 74.242C403.212 73.7653 403.324 73.3667 403.55 73.046C403.775 72.7167 404.087 72.4697 404.486 72.305C404.884 72.1317 405.335 72.045 405.838 72.045C406.297 72.045 406.7 72.1143 407.047 72.253C407.402 72.383 407.697 72.5607 407.931 72.786C408.173 73.0027 408.355 73.241 408.477 73.501C408.607 73.761 408.676 74.0167 408.685 74.268H407.307C407.246 73.956 407.094 73.696 406.852 73.488C406.618 73.2713 406.262 73.163 405.786 73.163C405.404 73.163 405.101 73.2453 404.876 73.41C404.65 73.566 404.538 73.7827 404.538 74.06C404.538 74.2853 404.607 74.4587 404.746 74.58C404.884 74.6927 405.075 74.7793 405.318 74.84C405.569 74.9007 405.855 74.957 406.176 75.009C406.47 75.0523 406.761 75.113 407.047 75.191C407.333 75.2603 407.597 75.3687 407.84 75.516C408.082 75.6547 408.273 75.8453 408.412 76.088C408.559 76.3307 408.633 76.6427 408.633 77.024C408.633 77.7 408.386 78.22 407.892 78.584C407.406 78.948 406.756 79.13 405.942 79.13ZM410.622 71.161C410.379 71.161 410.175 71.0787 410.011 70.914C409.855 70.7493 409.777 70.5457 409.777 70.303C409.777 70.069 409.855 69.8697 410.011 69.705C410.175 69.5403 410.379 69.458 410.622 69.458C410.856 69.458 411.051 69.5403 411.207 69.705C411.371 69.8697 411.454 70.069 411.454 70.303C411.454 70.5457 411.371 70.7493 411.207 70.914C411.051 71.0787 410.856 71.161 410.622 71.161ZM409.907 79V72.175H411.324V79H409.907ZM417.243 79V74.658C417.243 74.1727 417.118 73.8217 416.866 73.605C416.615 73.3797 416.286 73.267 415.878 73.267C415.636 73.267 415.397 73.3147 415.163 73.41C414.938 73.4967 414.752 73.644 414.604 73.852C414.457 74.06 414.383 74.3373 414.383 74.684L414.175 73.397C414.279 73.111 414.44 72.8683 414.656 72.669C414.882 72.4697 415.142 72.318 415.436 72.214C415.74 72.1013 416.052 72.045 416.372 72.045C416.797 72.045 417.178 72.136 417.516 72.318C417.863 72.5 418.136 72.7687 418.335 73.124C418.543 73.4707 418.647 73.904 418.647 74.424V79H417.243ZM412.966 79V72.175H414.383V79H412.966ZM423.217 79.13C422.541 79.13 421.961 78.9913 421.475 78.714C420.999 78.428 420.635 78.025 420.383 77.505C420.132 76.9763 420.006 76.361 420.006 75.659C420.006 74.8617 420.154 74.1943 420.448 73.657C420.743 73.1197 421.133 72.7167 421.618 72.448C422.112 72.1793 422.654 72.045 423.243 72.045C423.798 72.045 424.301 72.1663 424.751 72.409C425.202 72.643 425.562 73.0157 425.83 73.527C426.108 74.0297 426.246 74.684 426.246 75.49C426.246 75.646 426.242 75.7587 426.233 75.828C426.233 75.8973 426.233 75.932 426.233 75.932H420.942V74.879H425.453L424.842 75.438C424.886 74.892 424.838 74.4587 424.699 74.138C424.561 73.8173 424.361 73.5833 424.101 73.436C423.841 73.28 423.551 73.202 423.23 73.202C422.667 73.202 422.221 73.41 421.891 73.826C421.571 74.2333 421.41 74.8227 421.41 75.594C421.41 76.3047 421.571 76.8723 421.891 77.297C422.212 77.713 422.676 77.921 423.282 77.921C423.672 77.921 423.993 77.8387 424.244 77.674C424.504 77.5007 424.678 77.2623 424.764 76.959H426.207C426.043 77.6523 425.692 78.1897 425.154 78.571C424.617 78.9437 423.971 79.13 423.217 79.13ZM430.177 79.13C429.544 79.13 429.016 79.0303 428.591 78.831C428.166 78.623 427.841 78.3543 427.616 78.025C427.399 77.687 427.269 77.3273 427.226 76.946H428.604C428.673 77.2667 428.838 77.5267 429.098 77.726C429.358 77.9253 429.726 78.025 430.203 78.025C430.61 78.025 430.931 77.9513 431.165 77.804C431.408 77.648 431.529 77.427 431.529 77.141C431.529 76.8117 431.382 76.5907 431.087 76.478C430.792 76.3653 430.389 76.2743 429.878 76.205C429.592 76.1703 429.306 76.1183 429.02 76.049C428.734 75.9797 428.47 75.8757 428.227 75.737C427.993 75.5983 427.802 75.412 427.655 75.178C427.516 74.9353 427.447 74.6233 427.447 74.242C427.447 73.7653 427.56 73.3667 427.785 73.046C428.01 72.7167 428.322 72.4697 428.721 72.305C429.12 72.1317 429.57 72.045 430.073 72.045C430.532 72.045 430.935 72.1143 431.282 72.253C431.637 72.383 431.932 72.5607 432.166 72.786C432.409 73.0027 432.591 73.241 432.712 73.501C432.842 73.761 432.911 74.0167 432.92 74.268H431.542C431.481 73.956 431.33 73.696 431.087 73.488C430.853 73.2713 430.498 73.163 430.021 73.163C429.64 73.163 429.336 73.2453 429.111 73.41C428.886 73.566 428.773 73.7827 428.773 74.06C428.773 74.2853 428.842 74.4587 428.981 74.58C429.12 74.6927 429.31 74.7793 429.553 74.84C429.804 74.9007 430.09 74.957 430.411 75.009C430.706 75.0523 430.996 75.113 431.282 75.191C431.568 75.2603 431.832 75.3687 432.075 75.516C432.318 75.6547 432.508 75.8453 432.647 76.088C432.794 76.3307 432.868 76.6427 432.868 77.024C432.868 77.7 432.621 78.22 432.127 78.584C431.642 78.948 430.992 79.13 430.177 79.13ZM436.677 79.13C436.044 79.13 435.516 79.0303 435.091 78.831C434.666 78.623 434.341 78.3543 434.116 78.025C433.899 77.687 433.769 77.3273 433.726 76.946H435.104C435.173 77.2667 435.338 77.5267 435.598 77.726C435.858 77.9253 436.226 78.025 436.703 78.025C437.11 78.025 437.431 77.9513 437.665 77.804C437.908 77.648 438.029 77.427 438.029 77.141C438.029 76.8117 437.882 76.5907 437.587 76.478C437.292 76.3653 436.889 76.2743 436.378 76.205C436.092 76.1703 435.806 76.1183 435.52 76.049C435.234 75.9797 434.97 75.8757 434.727 75.737C434.493 75.5983 434.302 75.412 434.155 75.178C434.016 74.9353 433.947 74.6233 433.947 74.242C433.947 73.7653 434.06 73.3667 434.285 73.046C434.51 72.7167 434.822 72.4697 435.221 72.305C435.62 72.1317 436.07 72.045 436.573 72.045C437.032 72.045 437.435 72.1143 437.782 72.253C438.137 72.383 438.432 72.5607 438.666 72.786C438.909 73.0027 439.091 73.241 439.212 73.501C439.342 73.761 439.411 74.0167 439.42 74.268H438.042C437.981 73.956 437.83 73.696 437.587 73.488C437.353 73.2713 436.998 73.163 436.521 73.163C436.14 73.163 435.836 73.2453 435.611 73.41C435.386 73.566 435.273 73.7827 435.273 74.06C435.273 74.2853 435.342 74.4587 435.481 74.58C435.62 74.6927 435.81 74.7793 436.053 74.84C436.304 74.9007 436.59 74.957 436.911 75.009C437.206 75.0523 437.496 75.113 437.782 75.191C438.068 75.2603 438.332 75.3687 438.575 75.516C438.818 75.6547 439.008 75.8453 439.147 76.088C439.294 76.3307 439.368 76.6427 439.368 77.024C439.368 77.7 439.121 78.22 438.627 78.584C438.142 78.948 437.492 79.13 436.677 79.13Z"></path>
<rect fill="white" rx="7.25" height="62.5" width="414.5" y="97.75" x="108.75"></rect>
<rect stroke-width="1.5" stroke="#002B31" rx="7.25" height="62.5" width="414.5" y="97.75" x="108.75"></rect>
<path fill="#002B31" d="M128.732 121.13C127.943 121.13 127.237 120.948 126.613 120.584C125.989 120.211 125.499 119.678 125.144 118.985C124.789 118.283 124.611 117.429 124.611 116.424C124.611 115.445 124.789 114.608 125.144 113.915C125.508 113.222 126.011 112.693 126.652 112.329C127.293 111.956 128.021 111.77 128.836 111.77C129.451 111.77 130.019 111.883 130.539 112.108C131.059 112.333 131.492 112.68 131.839 113.148C132.186 113.607 132.42 114.192 132.541 114.903H131.163C130.981 114.21 130.678 113.703 130.253 113.382C129.837 113.061 129.343 112.901 128.771 112.901C128.216 112.901 127.722 113.044 127.289 113.33C126.864 113.616 126.531 114.019 126.288 114.539C126.054 115.059 125.937 115.679 125.937 116.398C125.937 117.143 126.058 117.785 126.301 118.322C126.544 118.859 126.877 119.275 127.302 119.57C127.735 119.856 128.229 119.999 128.784 119.999C129.356 119.999 129.854 119.834 130.279 119.505C130.704 119.176 131.007 118.669 131.189 117.984H132.541C132.42 118.695 132.177 119.284 131.813 119.752C131.449 120.22 131.003 120.567 130.474 120.792C129.945 121.017 129.365 121.13 128.732 121.13ZM136.785 121.13C136.213 121.13 135.68 120.996 135.186 120.727C134.701 120.45 134.307 120.051 134.003 119.531C133.709 119.002 133.561 118.357 133.561 117.594C133.561 116.831 133.709 116.186 134.003 115.657C134.307 115.128 134.701 114.73 135.186 114.461C135.68 114.184 136.218 114.045 136.798 114.045C137.388 114.045 137.925 114.184 138.41 114.461C138.904 114.73 139.299 115.128 139.593 115.657C139.888 116.186 140.035 116.831 140.035 117.594C140.035 118.357 139.884 119.002 139.58 119.531C139.286 120.051 138.891 120.45 138.397 120.727C137.912 120.996 137.375 121.13 136.785 121.13ZM136.798 119.999C137.396 119.999 137.864 119.782 138.202 119.349C138.54 118.907 138.709 118.322 138.709 117.594C138.709 116.866 138.54 116.285 138.202 115.852C137.864 115.41 137.401 115.189 136.811 115.189C136.205 115.189 135.732 115.41 135.394 115.852C135.056 116.285 134.887 116.866 134.887 117.594C134.887 118.322 135.056 118.907 135.394 119.349C135.732 119.782 136.2 119.999 136.798 119.999ZM141.502 121V114.175H142.815V121H141.502ZM145.493 121V116.463C145.493 116.056 145.376 115.739 145.142 115.514C144.916 115.289 144.604 115.176 144.206 115.176C143.989 115.176 143.772 115.219 143.556 115.306C143.339 115.393 143.161 115.531 143.023 115.722C142.884 115.913 142.815 116.168 142.815 116.489L142.607 115.384C142.763 114.951 143.031 114.621 143.413 114.396C143.794 114.162 144.201 114.045 144.635 114.045C145.033 114.045 145.393 114.132 145.714 114.305C146.034 114.47 146.29 114.725 146.481 115.072C146.671 115.41 146.767 115.826 146.767 116.32V121H145.493ZM149.458 121V116.463C149.458 116.064 149.341 115.752 149.107 115.527C148.881 115.293 148.569 115.176 148.171 115.176C147.954 115.176 147.737 115.224 147.521 115.319C147.304 115.406 147.122 115.544 146.975 115.735C146.836 115.917 146.767 116.168 146.767 116.489L146.429 115.384C146.593 114.959 146.875 114.63 147.274 114.396C147.672 114.162 148.097 114.045 148.548 114.045C148.972 114.045 149.349 114.136 149.679 114.318C150.008 114.491 150.268 114.747 150.459 115.085C150.658 115.423 150.758 115.835 150.758 116.32V121H149.458ZM152.445 123.6V114.175H153.758V115.176C154.009 114.803 154.317 114.522 154.681 114.331C155.054 114.14 155.448 114.045 155.864 114.045C156.401 114.045 156.895 114.179 157.346 114.448C157.797 114.708 158.161 115.098 158.438 115.618C158.715 116.129 158.854 116.766 158.854 117.529C158.854 118.3 158.707 118.955 158.412 119.492C158.117 120.029 157.732 120.437 157.255 120.714C156.787 120.991 156.28 121.13 155.734 121.13C155.353 121.13 154.989 121.048 154.642 120.883C154.295 120.71 154.001 120.454 153.758 120.116V123.6H152.445ZM155.578 119.999C156.202 119.999 156.683 119.774 157.021 119.323C157.359 118.864 157.528 118.279 157.528 117.568C157.528 116.84 157.359 116.264 157.021 115.839C156.692 115.406 156.232 115.189 155.643 115.189C155.019 115.189 154.534 115.414 154.187 115.865C153.849 116.316 153.68 116.901 153.68 117.62C153.68 118.348 153.845 118.929 154.174 119.362C154.512 119.787 154.98 119.999 155.578 119.999ZM162.097 121.13C161.473 121.13 160.979 120.952 160.615 120.597C160.251 120.242 160.069 119.787 160.069 119.232C160.069 118.781 160.173 118.413 160.381 118.127C160.597 117.832 160.879 117.603 161.226 117.438C161.572 117.273 161.958 117.169 162.383 117.126C162.625 117.091 162.833 117.061 163.007 117.035C163.18 117.009 163.336 116.987 163.475 116.97C163.613 116.944 163.752 116.914 163.891 116.879C164.038 116.844 164.211 116.805 164.411 116.762V117.763C164.125 117.85 163.821 117.923 163.501 117.984C163.18 118.036 162.833 118.088 162.461 118.14C162.088 118.192 161.811 118.305 161.629 118.478C161.447 118.651 161.356 118.89 161.356 119.193C161.356 119.47 161.455 119.696 161.655 119.869C161.854 120.042 162.14 120.129 162.513 120.129C162.868 120.129 163.171 120.051 163.423 119.895C163.683 119.73 163.882 119.522 164.021 119.271C164.168 119.011 164.242 118.742 164.242 118.465V116.515C164.242 116.064 164.129 115.726 163.904 115.501C163.678 115.276 163.362 115.163 162.955 115.163C162.599 115.163 162.296 115.25 162.045 115.423C161.802 115.588 161.616 115.852 161.486 116.216H160.16C160.255 115.739 160.446 115.341 160.732 115.02C161.026 114.699 161.377 114.457 161.785 114.292C162.192 114.127 162.621 114.045 163.072 114.045C163.531 114.045 163.947 114.132 164.32 114.305C164.692 114.478 164.987 114.734 165.204 115.072C165.429 115.41 165.542 115.83 165.542 116.333V119.44C165.542 119.717 165.546 119.977 165.555 120.22C165.572 120.454 165.62 120.714 165.698 121H164.385C164.341 120.879 164.307 120.727 164.281 120.545C164.255 120.363 164.242 120.19 164.242 120.025C164.12 120.346 163.856 120.61 163.449 120.818C163.05 121.026 162.599 121.13 162.097 121.13ZM171.5 121V116.606C171.5 116.112 171.365 115.752 171.097 115.527C170.837 115.293 170.494 115.176 170.07 115.176C169.818 115.176 169.571 115.224 169.329 115.319C169.095 115.406 168.9 115.557 168.744 115.774C168.596 115.991 168.523 116.277 168.523 116.632L168.315 115.384C168.427 115.098 168.596 114.855 168.822 114.656C169.047 114.457 169.307 114.305 169.602 114.201C169.896 114.097 170.2 114.045 170.512 114.045C170.936 114.045 171.318 114.136 171.656 114.318C172.002 114.5 172.28 114.769 172.488 115.124C172.696 115.479 172.8 115.917 172.8 116.437V121H171.5ZM167.21 121V114.175H168.523V121H167.21ZM174.544 123.73C174.318 123.73 174.154 123.717 174.05 123.691C173.946 123.665 173.894 123.652 173.894 123.652V122.508C173.894 122.508 173.946 122.521 174.05 122.547C174.162 122.573 174.305 122.586 174.479 122.586C174.877 122.586 175.176 122.495 175.376 122.313C175.584 122.131 175.761 121.849 175.909 121.468L178.639 114.175H179.939L177.001 121.91C176.862 122.265 176.693 122.582 176.494 122.859C176.303 123.136 176.052 123.349 175.74 123.496C175.428 123.652 175.029 123.73 174.544 123.73ZM176.559 122.001L173.543 114.175H174.908L177.144 119.986L176.559 122.001ZM188.499 121V116.606C188.499 116.112 188.364 115.752 188.096 115.527C187.836 115.293 187.493 115.176 187.069 115.176C186.817 115.176 186.57 115.224 186.328 115.319C186.094 115.406 185.899 115.557 185.743 115.774C185.595 115.991 185.522 116.277 185.522 116.632L185.314 115.384C185.426 115.098 185.595 114.855 185.821 114.656C186.046 114.457 186.306 114.305 186.601 114.201C186.895 114.097 187.199 114.045 187.511 114.045C187.935 114.045 188.317 114.136 188.655 114.318C189.001 114.5 189.279 114.769 189.487 115.124C189.695 115.479 189.799 115.917 189.799 116.437V121H188.499ZM184.209 121V114.175H185.522V121H184.209ZM193.251 121.13C192.627 121.13 192.133 120.952 191.769 120.597C191.405 120.242 191.223 119.787 191.223 119.232C191.223 118.781 191.327 118.413 191.535 118.127C191.752 117.832 192.033 117.603 192.38 117.438C192.727 117.273 193.112 117.169 193.537 117.126C193.78 117.091 193.988 117.061 194.161 117.035C194.334 117.009 194.49 116.987 194.629 116.97C194.768 116.944 194.906 116.914 195.045 116.879C195.192 116.844 195.366 116.805 195.565 116.762V117.763C195.279 117.85 194.976 117.923 194.655 117.984C194.334 118.036 193.988 118.088 193.615 118.14C193.242 118.192 192.965 118.305 192.783 118.478C192.601 118.651 192.51 118.89 192.51 119.193C192.51 119.47 192.61 119.696 192.809 119.869C193.008 120.042 193.294 120.129 193.667 120.129C194.022 120.129 194.326 120.051 194.577 119.895C194.837 119.73 195.036 119.522 195.175 119.271C195.322 119.011 195.396 118.742 195.396 118.465V116.515C195.396 116.064 195.283 115.726 195.058 115.501C194.833 115.276 194.516 115.163 194.109 115.163C193.754 115.163 193.45 115.25 193.199 115.423C192.956 115.588 192.77 115.852 192.64 116.216H191.314C191.409 115.739 191.6 115.341 191.886 115.02C192.181 114.699 192.532 114.457 192.939 114.292C193.346 114.127 193.775 114.045 194.226 114.045C194.685 114.045 195.101 114.132 195.474 114.305C195.847 114.478 196.141 114.734 196.358 115.072C196.583 115.41 196.696 115.83 196.696 116.333V119.44C196.696 119.717 196.7 119.977 196.709 120.22C196.726 120.454 196.774 120.714 196.852 121H195.539C195.496 120.879 195.461 120.727 195.435 120.545C195.409 120.363 195.396 120.19 195.396 120.025C195.275 120.346 195.01 120.61 194.603 120.818C194.204 121.026 193.754 121.13 193.251 121.13ZM198.364 121V114.175H199.677V121H198.364ZM202.355 121V116.463C202.355 116.056 202.238 115.739 202.004 115.514C201.779 115.289 201.467 115.176 201.068 115.176C200.851 115.176 200.635 115.219 200.418 115.306C200.201 115.393 200.024 115.531 199.885 115.722C199.746 115.913 199.677 116.168 199.677 116.489L199.469 115.384C199.625 114.951 199.894 114.621 200.275 114.396C200.656 114.162 201.064 114.045 201.497 114.045C201.896 114.045 202.255 114.132 202.576 114.305C202.897 114.47 203.152 114.725 203.343 115.072C203.534 115.41 203.629 115.826 203.629 116.32V121H202.355ZM206.32 121V116.463C206.32 116.064 206.203 115.752 205.969 115.527C205.744 115.293 205.432 115.176 205.033 115.176C204.816 115.176 204.6 115.224 204.383 115.319C204.166 115.406 203.984 115.544 203.837 115.735C203.698 115.917 203.629 116.168 203.629 116.489L203.291 115.384C203.456 114.959 203.737 114.63 204.136 114.396C204.535 114.162 204.959 114.045 205.41 114.045C205.835 114.045 206.212 114.136 206.541 114.318C206.87 114.491 207.13 114.747 207.321 115.085C207.52 115.423 207.62 115.835 207.62 116.32V121H206.32ZM212.258 121.13C211.582 121.13 211.006 120.991 210.529 120.714C210.053 120.428 209.689 120.025 209.437 119.505C209.186 118.985 209.06 118.374 209.06 117.672C209.06 116.849 209.208 116.173 209.502 115.644C209.806 115.107 210.2 114.708 210.685 114.448C211.179 114.179 211.708 114.045 212.271 114.045C212.826 114.045 213.324 114.166 213.766 114.409C214.217 114.643 214.577 115.016 214.845 115.527C215.114 116.03 215.248 116.68 215.248 117.477C215.248 117.633 215.244 117.741 215.235 117.802C215.235 117.863 215.235 117.893 215.235 117.893H210.009V116.892H214.481L213.948 117.438C213.983 116.883 213.927 116.441 213.779 116.112C213.641 115.774 213.437 115.527 213.168 115.371C212.908 115.215 212.609 115.137 212.271 115.137C211.665 115.137 211.192 115.354 210.854 115.787C210.525 116.22 210.36 116.827 210.36 117.607C210.36 118.326 210.529 118.907 210.867 119.349C211.205 119.782 211.691 119.999 212.323 119.999C212.731 119.999 213.069 119.912 213.337 119.739C213.615 119.566 213.792 119.319 213.87 118.998H215.209C215.036 119.674 214.685 120.198 214.156 120.571C213.636 120.944 213.004 121.13 212.258 121.13Z"></path>
<path fill="#002B31" d="M124.288 134.048V132.8H132.72V134.048H124.288ZM127.824 144V132.8H129.216V144H127.824ZM134.152 144V132.8H135.544V144H134.152ZM139.464 144V138.544C139.464 137.925 139.288 137.467 138.936 137.168C138.584 136.869 138.13 136.72 137.576 136.72C137.245 136.72 136.925 136.784 136.616 136.912C136.306 137.029 136.05 137.227 135.848 137.504C135.645 137.771 135.544 138.128 135.544 138.576L135.304 137.136C135.453 136.784 135.666 136.491 135.944 136.256C136.232 136.011 136.557 135.829 136.92 135.712C137.282 135.595 137.64 135.536 137.992 135.536C138.525 135.536 139.005 135.653 139.432 135.888C139.858 136.112 140.2 136.443 140.456 136.88C140.712 137.317 140.84 137.851 140.84 138.48V144H139.464ZM146.674 144.16C145.842 144.16 145.132 143.989 144.546 143.648C143.97 143.307 143.527 142.821 143.218 142.192C142.919 141.552 142.77 140.795 142.77 139.92C142.77 138.875 142.956 138.027 143.33 137.376C143.714 136.715 144.204 136.229 144.802 135.92C145.399 135.6 146.028 135.44 146.69 135.44C147.362 135.44 147.964 135.589 148.498 135.888C149.042 136.176 149.474 136.629 149.794 137.248C150.114 137.867 150.274 138.661 150.274 139.632C150.274 139.813 150.268 139.936 150.258 140C150.258 140.064 150.258 140.096 150.258 140.096H143.97V138.976H149.394L148.882 139.616C148.924 138.901 148.85 138.331 148.658 137.904C148.476 137.467 148.21 137.147 147.858 136.944C147.516 136.741 147.122 136.64 146.674 136.64C145.863 136.64 145.239 136.933 144.802 137.52C144.375 138.096 144.162 138.869 144.162 139.84C144.162 140.747 144.38 141.488 144.818 142.064C145.266 142.64 145.906 142.928 146.738 142.928C147.282 142.928 147.735 142.816 148.098 142.592C148.46 142.357 148.695 142.027 148.802 141.6H150.226C150.012 142.411 149.591 143.04 148.962 143.488C148.343 143.936 147.58 144.16 146.674 144.16ZM156.389 144V132.8H158.085L163.909 142.336L163.637 142.352V132.8H165.013V144H163.317L157.493 134.464L157.765 134.448V144H156.389ZM171.033 144.16C170.201 144.16 169.492 143.989 168.905 143.648C168.329 143.307 167.886 142.821 167.577 142.192C167.278 141.552 167.129 140.795 167.129 139.92C167.129 138.875 167.316 138.027 167.689 137.376C168.073 136.715 168.564 136.229 169.161 135.92C169.758 135.6 170.388 135.44 171.049 135.44C171.721 135.44 172.324 135.589 172.857 135.888C173.401 136.176 173.833 136.629 174.153 137.248C174.473 137.867 174.633 138.661 174.633 139.632C174.633 139.813 174.628 139.936 174.617 140C174.617 140.064 174.617 140.096 174.617 140.096H168.329V138.976H173.753L173.241 139.616C173.284 138.901 173.209 138.331 173.017 137.904C172.836 137.467 172.569 137.147 172.217 136.944C171.876 136.741 171.481 136.64 171.033 136.64C170.222 136.64 169.598 136.933 169.161 137.52C168.734 138.096 168.521 138.869 168.521 139.84C168.521 140.747 168.74 141.488 169.177 142.064C169.625 142.64 170.265 142.928 171.097 142.928C171.641 142.928 172.094 142.816 172.457 142.592C172.82 142.357 173.054 142.027 173.161 141.6H174.585C174.372 142.411 173.95 143.04 173.321 143.488C172.702 143.936 171.94 144.16 171.033 144.16ZM175.226 144L178.266 139.344L178.746 138.992L181.002 135.6H182.506L179.53 140.032L179.066 140.4L176.73 144H175.226ZM180.97 144L178.634 140.368L178.266 140.064L175.338 135.6H176.858L179.13 139.04L179.498 139.344L182.522 144H180.97ZM187.308 144.08C186.39 144.08 185.745 143.845 185.372 143.376C185.009 142.896 184.828 142.235 184.828 141.392V133.6H186.22V141.232C186.22 141.744 186.31 142.144 186.492 142.432C186.673 142.72 187.052 142.864 187.628 142.864C187.873 142.864 188.065 142.848 188.204 142.816C188.353 142.784 188.428 142.768 188.428 142.768V144C188.428 144 188.305 144.011 188.06 144.032C187.825 144.064 187.574 144.08 187.308 144.08ZM183.148 136.848V135.6H188.428V136.848H183.148ZM198.299 144.16C197.424 144.16 196.635 143.941 195.931 143.504C195.237 143.056 194.688 142.416 194.283 141.584C193.888 140.752 193.691 139.744 193.691 138.56C193.691 137.259 193.92 136.171 194.379 135.296C194.848 134.411 195.467 133.749 196.235 133.312C197.003 132.864 197.851 132.64 198.779 132.64C199.547 132.64 200.24 132.784 200.859 133.072C201.477 133.349 201.989 133.765 202.395 134.32C202.811 134.864 203.088 135.541 203.227 136.352H201.803C201.568 135.477 201.173 134.832 200.619 134.416C200.075 134 199.44 133.792 198.715 133.792C198.053 133.792 197.445 133.979 196.891 134.352C196.347 134.725 195.909 135.264 195.579 135.968C195.259 136.672 195.099 137.525 195.099 138.528C195.099 139.467 195.253 140.272 195.563 140.944C195.883 141.605 196.309 142.117 196.843 142.48C197.387 142.832 197.989 143.008 198.651 143.008C199.269 143.008 199.819 142.891 200.299 142.656C200.779 142.411 201.157 142.085 201.435 141.68C201.712 141.264 201.851 140.795 201.851 140.272V138.832L202.587 139.504H198.651V138.224H203.163V144H201.979L201.739 141.648L202.123 141.552C202.101 142.064 201.915 142.517 201.563 142.912C201.221 143.307 200.763 143.616 200.187 143.84C199.621 144.053 198.992 144.16 198.299 144.16ZM205.402 144V135.6H206.794V144H205.402ZM206.794 139.008L206.426 137.568C206.607 137.067 206.858 136.645 207.178 136.304C207.508 135.952 207.903 135.707 208.362 135.568C208.82 135.429 209.348 135.424 209.946 135.552V137.008C208.911 136.816 208.127 136.896 207.594 137.248C207.06 137.6 206.794 138.187 206.794 139.008ZM214.658 144.16C213.826 144.16 213.117 143.989 212.53 143.648C211.954 143.307 211.511 142.821 211.202 142.192C210.903 141.552 210.754 140.795 210.754 139.92C210.754 138.875 210.941 138.027 211.314 137.376C211.698 136.715 212.189 136.229 212.786 135.92C213.383 135.6 214.013 135.44 214.674 135.44C215.346 135.44 215.949 135.589 216.482 135.888C217.026 136.176 217.458 136.629 217.778 137.248C218.098 137.867 218.258 138.661 218.258 139.632C218.258 139.813 218.253 139.936 218.242 140C218.242 140.064 218.242 140.096 218.242 140.096H211.954V138.976H217.378L216.866 139.616C216.909 138.901 216.834 138.331 216.642 137.904C216.461 137.467 216.194 137.147 215.842 136.944C215.501 136.741 215.106 136.64 214.658 136.64C213.847 136.64 213.223 136.933 212.786 137.52C212.359 138.096 212.146 138.869 212.146 139.84C212.146 140.747 212.365 141.488 212.802 142.064C213.25 142.64 213.89 142.928 214.722 142.928C215.266 142.928 215.719 142.816 216.082 142.592C216.445 142.357 216.679 142.027 216.786 141.6H218.21C217.997 142.411 217.575 143.04 216.946 143.488C216.327 143.936 215.565 144.16 214.658 144.16ZM222.39 144.16C221.611 144.16 221.003 143.941 220.566 143.504C220.128 143.067 219.91 142.517 219.91 141.856C219.91 141.301 220.038 140.848 220.294 140.496C220.56 140.133 220.907 139.856 221.334 139.664C221.771 139.461 222.251 139.328 222.774 139.264C223.072 139.221 223.328 139.184 223.542 139.152C223.766 139.12 223.963 139.088 224.134 139.056C224.315 139.024 224.486 138.992 224.646 138.96C224.816 138.917 225.003 138.869 225.206 138.816V139.952C224.907 140.048 224.544 140.139 224.118 140.224C223.691 140.299 223.238 140.368 222.758 140.432C222.267 140.496 221.899 140.645 221.654 140.88C221.419 141.104 221.302 141.419 221.302 141.824C221.302 142.187 221.435 142.485 221.702 142.72C221.968 142.944 222.352 143.056 222.854 143.056C223.302 143.056 223.691 142.955 224.022 142.752C224.352 142.539 224.608 142.272 224.79 141.952C224.982 141.621 225.078 141.28 225.078 140.928V138.48C225.078 137.872 224.928 137.419 224.63 137.12C224.342 136.811 223.931 136.656 223.398 136.656C222.939 136.656 222.55 136.768 222.23 136.992C221.91 137.216 221.659 137.563 221.478 138.032H220.022C220.16 137.467 220.406 136.992 220.758 136.608C221.12 136.224 221.542 135.936 222.022 135.744C222.512 135.541 223.019 135.44 223.542 135.44C224.086 135.44 224.582 135.547 225.03 135.76C225.478 135.973 225.835 136.288 226.102 136.704C226.368 137.12 226.502 137.637 226.502 138.256V142.08C226.502 142.421 226.507 142.741 226.518 143.04C226.528 143.328 226.566 143.648 226.63 144H225.206C225.174 143.851 225.142 143.664 225.11 143.44C225.088 143.205 225.078 142.971 225.078 142.736C224.928 143.152 224.598 143.493 224.086 143.76C223.584 144.027 223.019 144.16 222.39 144.16ZM232.027 144.08C231.109 144.08 230.464 143.845 230.091 143.376C229.728 142.896 229.547 142.235 229.547 141.392V133.6H230.939V141.232C230.939 141.744 231.029 142.144 231.211 142.432C231.392 142.72 231.771 142.864 232.347 142.864C232.592 142.864 232.784 142.848 232.923 142.816C233.072 142.784 233.147 142.768 233.147 142.768V144C233.147 144 233.024 144.011 232.779 144.032C232.544 144.064 232.293 144.08 232.027 144.08ZM227.867 136.848V135.6H233.147V136.848H227.867ZM243.401 144.16C242.463 144.16 241.615 143.936 240.857 143.488C240.1 143.029 239.503 142.368 239.065 141.504C238.628 140.64 238.409 139.584 238.409 138.336C238.409 137.131 238.628 136.107 239.065 135.264C239.503 134.411 240.105 133.76 240.873 133.312C241.652 132.864 242.532 132.64 243.513 132.64C244.26 132.64 244.943 132.779 245.561 133.056C246.191 133.323 246.713 133.739 247.129 134.304C247.556 134.869 247.839 135.595 247.977 136.48H246.537C246.303 135.552 245.913 134.875 245.369 134.448C244.836 134.011 244.196 133.792 243.449 133.792C242.735 133.792 242.1 133.979 241.545 134.352C241.001 134.715 240.575 135.237 240.265 135.92C239.967 136.592 239.817 137.392 239.817 138.32C239.817 139.301 239.972 140.144 240.281 140.848C240.601 141.541 241.033 142.075 241.577 142.448C242.132 142.821 242.761 143.008 243.465 143.008C244.212 143.008 244.857 142.789 245.401 142.352C245.956 141.915 246.351 141.227 246.585 140.288H247.945C247.817 141.184 247.535 141.92 247.097 142.496C246.66 143.061 246.121 143.483 245.481 143.76C244.852 144.027 244.159 144.16 243.401 144.16ZM253.253 144.16C252.559 144.16 251.909 143.995 251.301 143.664C250.703 143.323 250.218 142.832 249.845 142.192C249.482 141.541 249.301 140.747 249.301 139.808C249.301 138.869 249.482 138.075 249.845 137.424C250.218 136.773 250.703 136.283 251.301 135.952C251.898 135.611 252.549 135.44 253.253 135.44C253.957 135.44 254.607 135.611 255.205 135.952C255.813 136.283 256.298 136.773 256.661 137.424C257.034 138.075 257.221 138.869 257.221 139.808C257.221 140.747 257.034 141.541 256.661 142.192C256.298 142.832 255.818 143.323 255.221 143.664C254.623 143.995 253.967 144.16 253.253 144.16ZM253.253 142.976C254.053 142.976 254.677 142.688 255.125 142.112C255.573 141.536 255.797 140.768 255.797 139.808C255.797 138.848 255.573 138.08 255.125 137.504C254.677 136.928 254.058 136.64 253.269 136.64C252.469 136.64 251.845 136.928 251.397 137.504C250.949 138.08 250.725 138.848 250.725 139.808C250.725 140.768 250.949 141.536 251.397 142.112C251.845 142.688 252.463 142.976 253.253 142.976ZM259.183 144V135.6H260.575V144H259.183ZM264.079 144V138.272C264.079 137.771 263.93 137.376 263.631 137.088C263.332 136.789 262.916 136.64 262.383 136.64C262.106 136.64 261.823 136.699 261.535 136.816C261.258 136.923 261.028 137.099 260.847 137.344C260.666 137.589 260.575 137.909 260.575 138.304L260.319 137.056C260.532 136.523 260.868 136.123 261.327 135.856C261.796 135.579 262.287 135.44 262.799 135.44C263.279 135.44 263.716 135.547 264.111 135.76C264.516 135.963 264.836 136.272 265.071 136.688C265.306 137.104 265.423 137.616 265.423 138.224V144H264.079ZM268.927 144V138.272C268.927 137.781 268.778 137.387 268.479 137.088C268.18 136.789 267.764 136.64 267.231 136.64C266.964 136.64 266.687 136.699 266.399 136.816C266.122 136.933 265.887 137.115 265.695 137.36C265.514 137.595 265.423 137.909 265.423 138.304L265.039 137.056C265.252 136.533 265.599 136.133 266.079 135.856C266.57 135.579 267.076 135.44 267.599 135.44C268.122 135.44 268.586 135.552 268.991 135.776C269.396 136 269.716 136.32 269.951 136.736C270.196 137.152 270.319 137.648 270.319 138.224V144H268.927ZM272.558 147.2V135.6H273.95V136.864C274.281 136.395 274.675 136.043 275.134 135.808C275.603 135.563 276.094 135.44 276.606 135.44C277.267 135.44 277.881 135.605 278.446 135.936C279.022 136.256 279.481 136.736 279.822 137.376C280.174 138.005 280.35 138.789 280.35 139.728C280.35 140.677 280.163 141.483 279.79 142.144C279.417 142.805 278.931 143.307 278.334 143.648C277.737 143.989 277.091 144.16 276.398 144.16C275.929 144.16 275.481 144.053 275.054 143.84C274.627 143.627 274.259 143.312 273.95 142.896V147.2H272.558ZM276.35 142.96C277.171 142.96 277.806 142.667 278.254 142.08C278.713 141.483 278.942 140.715 278.942 139.776C278.942 138.816 278.718 138.059 278.27 137.504C277.822 136.939 277.203 136.656 276.414 136.656C275.593 136.656 274.953 136.949 274.494 137.536C274.035 138.123 273.806 138.891 273.806 139.84C273.806 140.8 274.03 141.563 274.478 142.128C274.926 142.683 275.55 142.96 276.35 142.96ZM284.484 144.16C283.705 144.16 283.097 143.941 282.66 143.504C282.222 143.067 282.004 142.517 282.004 141.856C282.004 141.301 282.132 140.848 282.388 140.496C282.654 140.133 283.001 139.856 283.428 139.664C283.865 139.461 284.345 139.328 284.868 139.264C285.166 139.221 285.422 139.184 285.636 139.152C285.86 139.12 286.057 139.088 286.228 139.056C286.409 139.024 286.58 138.992 286.74 138.96C286.91 138.917 287.097 138.869 287.3 138.816V139.952C287.001 140.048 286.638 140.139 286.212 140.224C285.785 140.299 285.332 140.368 284.852 140.432C284.361 140.496 283.993 140.645 283.748 140.88C283.513 141.104 283.396 141.419 283.396 141.824C283.396 142.187 283.529 142.485 283.796 142.72C284.062 142.944 284.446 143.056 284.948 143.056C285.396 143.056 285.785 142.955 286.116 142.752C286.446 142.539 286.702 142.272 286.884 141.952C287.076 141.621 287.172 141.28 287.172 140.928V138.48C287.172 137.872 287.022 137.419 286.724 137.12C286.436 136.811 286.025 136.656 285.492 136.656C285.033 136.656 284.644 136.768 284.324 136.992C284.004 137.216 283.753 137.563 283.572 138.032H282.116C282.254 137.467 282.5 136.992 282.852 136.608C283.214 136.224 283.636 135.936 284.116 135.744C284.606 135.541 285.113 135.44 285.636 135.44C286.18 135.44 286.676 135.547 287.124 135.76C287.572 135.973 287.929 136.288 288.196 136.704C288.462 137.12 288.596 137.637 288.596 138.256V142.08C288.596 142.421 288.601 142.741 288.612 143.04C288.622 143.328 288.66 143.648 288.724 144H287.3C287.268 143.851 287.236 143.664 287.204 143.44C287.182 143.205 287.172 142.971 287.172 142.736C287.022 143.152 286.692 143.493 286.18 143.76C285.678 144.027 285.113 144.16 284.484 144.16ZM296.088 144V138.48C296.088 137.851 295.912 137.387 295.56 137.088C295.219 136.789 294.771 136.64 294.216 136.64C293.886 136.64 293.566 136.704 293.256 136.832C292.947 136.949 292.691 137.147 292.488 137.424C292.286 137.701 292.184 138.064 292.184 138.512L291.944 137.056C292.094 136.693 292.307 136.395 292.584 136.16C292.872 135.925 293.198 135.749 293.56 135.632C293.923 135.504 294.28 135.44 294.632 135.44C295.166 135.44 295.646 135.557 296.072 135.792C296.499 136.016 296.84 136.352 297.096 136.8C297.352 137.237 297.48 137.776 297.48 138.416V144H296.088ZM290.792 144V135.6H292.184V144H290.792ZM299.691 147.36C299.424 147.36 299.227 147.344 299.099 147.312C298.981 147.28 298.923 147.264 298.923 147.264V146.032C298.923 146.032 298.987 146.043 299.115 146.064C299.253 146.096 299.429 146.112 299.643 146.112C300.123 146.112 300.48 146.016 300.715 145.824C300.949 145.643 301.147 145.339 301.307 144.912L304.811 135.6H306.203L302.443 145.488C302.304 145.851 302.128 146.171 301.915 146.448C301.701 146.736 301.419 146.96 301.067 147.12C300.715 147.28 300.256 147.36 299.691 147.36ZM302.251 145.296L298.507 135.6H299.963L302.795 142.864L302.251 145.296ZM311.764 144V132.8H313.156V144H311.764ZM320.87 144V138.48C320.87 137.851 320.694 137.387 320.342 137.088C320 136.789 319.552 136.64 318.998 136.64C318.667 136.64 318.347 136.704 318.038 136.832C317.728 136.949 317.472 137.147 317.27 137.424C317.067 137.701 316.966 138.064 316.966 138.512L316.726 137.056C316.875 136.693 317.088 136.395 317.366 136.16C317.654 135.925 317.979 135.749 318.342 135.632C318.704 135.504 319.062 135.44 319.414 135.44C319.947 135.44 320.427 135.557 320.854 135.792C321.28 136.016 321.622 136.352 321.878 136.8C322.134 137.237 322.262 137.776 322.262 138.416V144H320.87ZM315.574 144V135.6H316.966V144H315.574ZM327.871 144.16C327.157 144.16 326.522 143.995 325.967 143.664C325.413 143.323 324.975 142.832 324.655 142.192C324.346 141.552 324.191 140.784 324.191 139.888C324.191 138.896 324.367 138.075 324.719 137.424C325.082 136.763 325.562 136.267 326.159 135.936C326.767 135.605 327.429 135.44 328.143 135.44C328.677 135.44 329.183 135.541 329.663 135.744C330.154 135.947 330.565 136.267 330.895 136.704C331.237 137.141 331.445 137.712 331.519 138.416H330.111C330.005 137.787 329.759 137.333 329.375 137.056C329.002 136.779 328.575 136.64 328.095 136.64C327.306 136.64 326.693 136.923 326.255 137.488C325.829 138.053 325.615 138.827 325.615 139.808C325.615 140.8 325.834 141.579 326.271 142.144C326.709 142.699 327.295 142.976 328.031 142.976C328.618 142.976 329.087 142.811 329.439 142.48C329.802 142.139 330.026 141.712 330.111 141.2H331.519C331.413 142.107 331.034 142.827 330.383 143.36C329.743 143.893 328.906 144.16 327.871 144.16ZM334.057 144.16C333.78 144.16 333.545 144.069 333.353 143.888C333.172 143.707 333.081 143.467 333.081 143.168C333.081 142.891 333.172 142.661 333.353 142.48C333.545 142.299 333.78 142.208 334.057 142.208C334.335 142.208 334.564 142.299 334.745 142.48C334.927 142.661 335.017 142.891 335.017 143.168C335.017 143.467 334.927 143.707 334.745 143.888C334.564 144.069 334.335 144.16 334.057 144.16Z"></path>
<rect fill="#002B31" transform="translate(336 128.749)" height="20.5027" width="1"></rect>
<rect fill="#002D33" rx="4" height="40" width="75.0571" y="109" x="437"></rect>
<path fill="white" d="M449.891 133.5V132.128H455.085V133.5H449.891ZM449.051 133.5V123.7H450.577V133.5H449.051ZM459.28 133.64C458.552 133.64 457.927 133.491 457.404 133.192C456.891 132.884 456.499 132.45 456.228 131.89C455.958 131.321 455.822 130.658 455.822 129.902C455.822 129.043 455.981 128.325 456.298 127.746C456.616 127.167 457.036 126.733 457.558 126.444C458.09 126.155 458.674 126.01 459.308 126.01C459.906 126.01 460.447 126.141 460.932 126.402C461.418 126.654 461.805 127.055 462.094 127.606C462.393 128.147 462.542 128.852 462.542 129.72C462.542 129.888 462.538 130.009 462.528 130.084C462.528 130.159 462.528 130.196 462.528 130.196H456.83V129.062H461.688L461.03 129.664C461.077 129.076 461.026 128.609 460.876 128.264C460.727 127.919 460.512 127.667 460.232 127.508C459.952 127.34 459.64 127.256 459.294 127.256C458.688 127.256 458.207 127.48 457.852 127.928C457.507 128.367 457.334 129.001 457.334 129.832C457.334 130.597 457.507 131.209 457.852 131.666C458.198 132.114 458.697 132.338 459.35 132.338C459.77 132.338 460.116 132.249 460.386 132.072C460.666 131.885 460.853 131.629 460.946 131.302H462.5C462.323 132.049 461.945 132.627 461.366 133.038C460.788 133.439 460.092 133.64 459.28 133.64ZM466.894 133.57C466.091 133.57 465.499 133.36 465.116 132.94C464.743 132.511 464.556 131.885 464.556 131.064V124.4H466.082V130.896C466.082 131.307 466.157 131.633 466.306 131.876C466.465 132.109 466.777 132.226 467.244 132.226C467.459 132.226 467.627 132.212 467.748 132.184C467.879 132.156 467.944 132.142 467.944 132.142V133.472C467.944 133.472 467.837 133.486 467.622 133.514C467.417 133.551 467.174 133.57 466.894 133.57ZM463.17 127.466V126.15H467.944V127.466H463.17ZM469.76 126.738H468.906L469.844 124.848L470.194 125.282C469.858 125.357 469.578 125.305 469.354 125.128C469.13 124.951 469.018 124.708 469.018 124.4C469.018 124.101 469.111 123.863 469.298 123.686C469.494 123.509 469.727 123.42 469.998 123.42C470.278 123.42 470.507 123.509 470.684 123.686C470.871 123.863 470.964 124.106 470.964 124.414C470.964 124.685 470.908 124.927 470.796 125.142C470.684 125.357 470.544 125.59 470.376 125.842L469.76 126.738ZM474.021 133.64C473.34 133.64 472.771 133.533 472.313 133.318C471.856 133.094 471.506 132.805 471.263 132.45C471.03 132.086 470.89 131.699 470.843 131.288H472.327C472.402 131.633 472.579 131.913 472.859 132.128C473.139 132.343 473.536 132.45 474.049 132.45C474.488 132.45 474.833 132.371 475.085 132.212C475.347 132.044 475.477 131.806 475.477 131.498C475.477 131.143 475.319 130.905 475.001 130.784C474.684 130.663 474.25 130.565 473.699 130.49C473.391 130.453 473.083 130.397 472.775 130.322C472.467 130.247 472.183 130.135 471.921 129.986C471.669 129.837 471.464 129.636 471.305 129.384C471.156 129.123 471.081 128.787 471.081 128.376C471.081 127.863 471.203 127.433 471.445 127.088C471.688 126.733 472.024 126.467 472.453 126.29C472.883 126.103 473.368 126.01 473.909 126.01C474.404 126.01 474.838 126.085 475.211 126.234C475.594 126.374 475.911 126.565 476.163 126.808C476.425 127.041 476.621 127.298 476.751 127.578C476.891 127.858 476.966 128.133 476.975 128.404H475.491C475.426 128.068 475.263 127.788 475.001 127.564C474.749 127.331 474.367 127.214 473.853 127.214C473.443 127.214 473.116 127.303 472.873 127.48C472.631 127.648 472.509 127.881 472.509 128.18C472.509 128.423 472.584 128.609 472.733 128.74C472.883 128.861 473.088 128.955 473.349 129.02C473.62 129.085 473.928 129.146 474.273 129.202C474.591 129.249 474.903 129.314 475.211 129.398C475.519 129.473 475.804 129.589 476.065 129.748C476.327 129.897 476.532 130.103 476.681 130.364C476.84 130.625 476.919 130.961 476.919 131.372C476.919 132.1 476.653 132.66 476.121 133.052C475.599 133.444 474.899 133.64 474.021 133.64ZM484.874 136.44C484.249 136.44 483.694 136.337 483.208 136.132C482.723 135.927 482.331 135.642 482.032 135.278C481.743 134.923 481.561 134.517 481.486 134.06H483.054C483.157 134.452 483.376 134.737 483.712 134.914C484.058 135.101 484.459 135.194 484.916 135.194C485.495 135.194 485.957 135.045 486.302 134.746C486.648 134.457 486.82 134.018 486.82 133.43V132.24C486.54 132.623 486.209 132.917 485.826 133.122C485.444 133.327 485.024 133.43 484.566 133.43C484.016 133.43 483.498 133.299 483.012 133.038C482.527 132.767 482.135 132.361 481.836 131.82C481.547 131.279 481.402 130.607 481.402 129.804C481.402 128.964 481.556 128.264 481.864 127.704C482.182 127.144 482.592 126.724 483.096 126.444C483.6 126.155 484.128 126.01 484.678 126.01C485.098 126.01 485.495 126.103 485.868 126.29C486.242 126.467 486.554 126.724 486.806 127.06V126.15H488.332V133.388C488.332 134.013 488.188 134.555 487.898 135.012C487.609 135.469 487.203 135.819 486.68 136.062C486.158 136.314 485.556 136.44 484.874 136.44ZM484.874 132.072C485.5 132.072 485.99 131.853 486.344 131.414C486.699 130.975 486.876 130.397 486.876 129.678C486.876 128.959 486.704 128.395 486.358 127.984C486.013 127.564 485.537 127.354 484.93 127.354C484.314 127.354 483.829 127.573 483.474 128.012C483.12 128.451 482.942 129.025 482.942 129.734C482.942 130.462 483.115 131.036 483.46 131.456C483.806 131.867 484.277 132.072 484.874 132.072ZM493.255 133.64C492.639 133.64 492.065 133.495 491.533 133.206C491.001 132.907 490.577 132.478 490.259 131.918C489.942 131.349 489.783 130.653 489.783 129.832C489.783 129.011 489.942 128.315 490.259 127.746C490.586 127.177 491.015 126.747 491.547 126.458C492.079 126.159 492.663 126.01 493.297 126.01C493.932 126.01 494.511 126.159 495.033 126.458C495.565 126.747 495.99 127.177 496.307 127.746C496.625 128.315 496.783 129.011 496.783 129.832C496.783 130.653 496.62 131.349 496.293 131.918C495.976 132.478 495.551 132.907 495.019 133.206C494.487 133.495 493.899 133.64 493.255 133.64ZM493.269 132.31C493.895 132.31 494.38 132.086 494.725 131.638C495.071 131.181 495.243 130.579 495.243 129.832C495.243 129.085 495.071 128.488 494.725 128.04C494.38 127.583 493.899 127.354 493.283 127.354C492.677 127.354 492.196 127.583 491.841 128.04C491.496 128.488 491.323 129.085 491.323 129.832C491.323 130.579 491.496 131.181 491.841 131.638C492.187 132.086 492.663 132.31 493.269 132.31ZM498.602 130.21L498.35 125.968H499.89L499.638 130.21H498.602ZM498.35 125.968V123.7H499.89V125.968H498.35ZM499.134 133.64C498.854 133.64 498.616 133.547 498.42 133.36C498.233 133.173 498.14 132.94 498.14 132.66C498.14 132.38 498.233 132.151 498.42 131.974C498.616 131.787 498.854 131.694 499.134 131.694C499.395 131.694 499.619 131.787 499.806 131.974C499.992 132.151 500.086 132.38 500.086 132.66C500.086 132.94 499.992 133.173 499.806 133.36C499.619 133.547 499.395 133.64 499.134 133.64Z"></path>
<path fill-opacity="0.65" fill="#1D2A29" d="M109.595 193.115V192.317H111.546C111.966 192.317 112.316 192.205 112.595 191.982C112.875 191.751 113.015 191.384 113.015 190.88C113.015 190.383 112.875 190.023 112.595 189.799C112.316 189.569 111.966 189.453 111.546 189.453H109.595V188.656H111.567C112.092 188.656 112.529 188.747 112.879 188.929C113.228 189.103 113.491 189.355 113.666 189.684C113.84 190.013 113.928 190.397 113.928 190.838C113.928 191.335 113.826 191.754 113.624 192.097C113.428 192.433 113.151 192.688 112.795 192.863C112.445 193.031 112.036 193.115 111.567 193.115H109.595ZM108.839 196V188.656H109.752V196H108.839ZM117.49 196.105C117.035 196.105 116.608 195.997 116.21 195.78C115.818 195.556 115.5 195.234 115.255 194.814C115.017 194.388 114.898 193.867 114.898 193.251C114.898 192.636 115.017 192.115 115.255 191.688C115.5 191.261 115.818 190.939 116.21 190.723C116.601 190.499 117.028 190.387 117.49 190.387C117.951 190.387 118.378 190.499 118.77 190.723C119.168 190.939 119.486 191.261 119.724 191.688C119.969 192.115 120.091 192.636 120.091 193.251C120.091 193.867 119.969 194.388 119.724 194.814C119.486 195.234 119.172 195.556 118.78 195.78C118.388 195.997 117.958 196.105 117.49 196.105ZM117.49 195.329C118.014 195.329 118.423 195.14 118.717 194.762C119.011 194.384 119.158 193.881 119.158 193.251C119.158 192.622 119.011 192.118 118.717 191.74C118.423 191.363 118.018 191.174 117.5 191.174C116.975 191.174 116.566 191.363 116.272 191.74C115.979 192.118 115.832 192.622 115.832 193.251C115.832 193.881 115.979 194.384 116.272 194.762C116.566 195.14 116.972 195.329 117.49 195.329ZM122.292 196L120.707 190.492H121.631L123.016 195.423L122.627 195.412L124.18 190.492H125.145L126.688 195.412L126.31 195.423L127.684 190.492H128.555L126.971 196H125.995L124.505 191.3H124.757L123.267 196H122.292ZM131.731 196.105C131.185 196.105 130.72 195.993 130.335 195.769C129.957 195.545 129.667 195.227 129.464 194.814C129.268 194.395 129.171 193.898 129.171 193.325C129.171 192.639 129.293 192.083 129.538 191.656C129.79 191.223 130.111 190.904 130.503 190.702C130.895 190.492 131.307 190.387 131.741 190.387C132.182 190.387 132.577 190.485 132.927 190.681C133.283 190.87 133.567 191.167 133.776 191.572C133.986 191.978 134.091 192.499 134.091 193.136C134.091 193.255 134.088 193.335 134.081 193.377C134.081 193.419 134.081 193.44 134.081 193.44H129.957V192.706H133.514L133.178 193.125C133.206 192.657 133.157 192.282 133.032 192.003C132.913 191.716 132.738 191.506 132.507 191.373C132.283 191.24 132.024 191.174 131.731 191.174C131.199 191.174 130.79 191.366 130.503 191.751C130.223 192.129 130.083 192.636 130.083 193.272C130.083 193.867 130.227 194.353 130.514 194.73C130.807 195.108 131.227 195.297 131.773 195.297C132.129 195.297 132.427 195.224 132.664 195.077C132.902 194.923 133.056 194.706 133.126 194.426H134.06C133.92 194.958 133.644 195.37 133.231 195.664C132.825 195.958 132.325 196.105 131.731 196.105ZM135.384 196V190.492H136.297V196H135.384ZM136.297 192.727L136.056 191.782C136.175 191.454 136.339 191.177 136.549 190.953C136.766 190.723 137.024 190.562 137.325 190.471C137.626 190.38 137.972 190.376 138.364 190.46V191.415C137.685 191.289 137.171 191.342 136.822 191.572C136.472 191.803 136.297 192.188 136.297 192.727ZM141.454 196.105C140.908 196.105 140.443 195.993 140.059 195.769C139.681 195.545 139.391 195.227 139.188 194.814C138.992 194.395 138.894 193.898 138.894 193.325C138.894 192.639 139.016 192.083 139.261 191.656C139.513 191.223 139.835 190.904 140.226 190.702C140.618 190.492 141.031 190.387 141.464 190.387C141.905 190.387 142.3 190.485 142.65 190.681C143.007 190.87 143.29 191.167 143.5 191.572C143.71 191.978 143.815 192.499 143.815 193.136C143.815 193.255 143.811 193.335 143.804 193.377C143.804 193.419 143.804 193.44 143.804 193.44H139.681V192.706H143.238L142.902 193.125C142.93 192.657 142.881 192.282 142.755 192.003C142.636 191.716 142.461 191.506 142.23 191.373C142.007 191.24 141.748 191.174 141.454 191.174C140.922 191.174 140.513 191.366 140.226 191.751C139.947 192.129 139.807 192.636 139.807 193.272C139.807 193.867 139.95 194.353 140.237 194.73C140.531 195.108 140.95 195.297 141.496 195.297C141.853 195.297 142.15 195.224 142.388 195.077C142.626 194.923 142.779 194.706 142.849 194.426H143.783C143.643 194.958 143.367 195.37 142.954 195.664C142.549 195.958 142.048 196.105 141.454 196.105ZM147.374 196.105C146.947 196.105 146.545 196 146.167 195.79C145.79 195.58 145.485 195.269 145.255 194.856C145.024 194.444 144.908 193.937 144.908 193.335C144.908 192.713 145.031 192.188 145.275 191.761C145.52 191.335 145.839 191.009 146.23 190.786C146.622 190.562 147.038 190.45 147.479 190.45C147.794 190.45 148.091 190.523 148.371 190.67C148.657 190.81 148.902 191.02 149.105 191.3V188.656H150.018V194.762C150.018 194.979 150.021 195.185 150.028 195.381C150.042 195.57 150.067 195.776 150.102 196H149.168C149.154 195.881 149.14 195.745 149.126 195.591C149.112 195.437 149.105 195.297 149.105 195.171C148.888 195.472 148.629 195.703 148.329 195.864C148.028 196.024 147.71 196.105 147.374 196.105ZM147.489 195.329C148.028 195.329 148.448 195.14 148.748 194.762C149.049 194.377 149.199 193.877 149.199 193.262C149.199 192.639 149.053 192.146 148.759 191.782C148.465 191.419 148.059 191.237 147.542 191.237C147.003 191.237 146.583 191.426 146.283 191.803C145.989 192.181 145.842 192.681 145.842 193.304C145.842 193.926 145.985 194.419 146.272 194.783C146.566 195.147 146.972 195.329 147.489 195.329ZM156.652 196.105C156.331 196.105 156.026 196.031 155.74 195.885C155.46 195.738 155.218 195.524 155.016 195.245L154.932 196H154.134V188.656H155.047V191.373C155.264 191.072 155.523 190.845 155.823 190.691C156.124 190.53 156.442 190.45 156.778 190.45C157.219 190.45 157.625 190.558 157.995 190.775C158.373 190.985 158.674 191.296 158.898 191.709C159.128 192.122 159.244 192.629 159.244 193.23C159.244 193.846 159.121 194.37 158.877 194.804C158.632 195.231 158.313 195.556 157.922 195.78C157.53 195.997 157.107 196.105 156.652 196.105ZM156.621 195.329C157.152 195.329 157.569 195.14 157.869 194.762C158.17 194.377 158.32 193.877 158.32 193.262C158.32 192.639 158.174 192.146 157.88 191.782C157.586 191.419 157.18 191.237 156.663 191.237C156.124 191.237 155.705 191.426 155.404 191.803C155.103 192.181 154.953 192.681 154.953 193.304C154.953 193.926 155.1 194.419 155.393 194.783C155.687 195.147 156.096 195.329 156.621 195.329ZM160.523 198.203C160.348 198.203 160.218 198.193 160.134 198.172C160.057 198.151 160.019 198.14 160.019 198.14V197.332C160.019 197.332 160.061 197.339 160.145 197.353C160.236 197.374 160.351 197.385 160.491 197.385C160.806 197.385 161.04 197.322 161.194 197.196C161.348 197.077 161.477 196.878 161.582 196.598L163.88 190.492H164.793L162.327 196.976C162.236 197.214 162.121 197.423 161.981 197.605C161.841 197.794 161.656 197.941 161.425 198.046C161.194 198.151 160.893 198.203 160.523 198.203ZM162.201 196.85L159.746 190.492H160.701L162.558 195.255L162.201 196.85Z"></path>
<g clip-path="url(#clip0_1_88210)">
<path fill="#FFBB00" d="M187.778 209.813C188.01 209.812 188.237 209.877 188.434 209.998C188.631 210.12 188.79 210.295 188.893 210.502L192.774 218.236L196.861 226.396C196.955 226.58 197.002 226.785 196.998 226.991C196.993 227.198 196.938 227.4 196.835 227.58C196.733 227.76 196.588 227.911 196.412 228.021C196.237 228.131 196.037 228.196 195.83 228.21H195.745L187.778 226.632L182.781 218.236L186.662 210.502C186.765 210.295 186.924 210.121 187.121 209.999C187.319 209.877 187.546 209.813 187.778 209.813Z"></path>
<path fill="url(#paint0_linear_1_88210)" d="M187.778 209.812C188.01 209.812 188.237 209.876 188.434 209.998C188.631 210.12 188.79 210.294 188.893 210.502L192.774 218.236L187.778 226.611L179.81 228.189C179.596 228.189 179.385 228.135 179.197 228.031C179.01 227.927 178.853 227.777 178.741 227.594C178.629 227.412 178.566 227.204 178.558 226.991C178.549 226.777 178.596 226.565 178.694 226.375L182.781 218.215L186.662 210.48C186.768 210.277 186.928 210.108 187.125 209.99C187.322 209.872 187.548 209.811 187.778 209.812Z"></path>
<path fill="url(#paint1_linear_1_88210)" d="M187.778 209.813C188.01 209.812 188.237 209.877 188.434 209.998C188.631 210.12 188.79 210.295 188.893 210.502L192.774 218.236L187.778 226.611L182.781 218.236L186.662 210.502C186.759 210.308 186.904 210.143 187.084 210.023C187.265 209.902 187.473 209.831 187.69 209.816L187.778 209.813Z"></path>
<path fill="#0A2540" d="M212.058 214.8L215.562 224.131H213.622L212.876 222.13H209.02L208.277 224.131H206.373L209.872 214.8H212.058ZM209.632 220.504H212.279L210.951 216.919L209.632 220.504Z"></path>
<path fill="#0A2540" d="M216.357 218.813H215.447V217.301H216.357V215.343H218.155V217.292H219.549V218.804H218.155V221.971C218.155 222.557 218.479 222.636 219.016 222.636C219.225 222.636 219.433 222.623 219.64 222.597V224.108C219.254 224.182 218.861 224.218 218.467 224.214C217.084 224.214 216.345 223.757 216.345 222.355L216.357 218.813Z"></path>
<path fill="#0A2540" d="M222.56 224.131H220.74V214.8H222.56V224.131Z"></path>
<path fill="#0A2540" d="M229.708 224.129H227.947C227.947 223.96 227.923 223.779 227.923 223.582C227.386 224.048 226.689 224.287 225.979 224.247C224.636 224.247 223.633 223.44 223.633 222.231C223.633 220.868 224.715 220.297 226.11 220.049L227.816 219.723V219.421C227.816 218.877 227.453 218.656 226.801 218.656C226.058 218.656 225.746 218.958 225.706 219.499H223.933C223.996 217.927 225.197 217.16 226.892 217.16C228.587 217.16 229.602 217.876 229.602 219.188V222.452C229.596 223.013 229.631 223.574 229.708 224.129ZM227.816 220.998L226.489 221.258C225.882 221.373 225.43 221.56 225.43 222.116C225.43 222.597 225.782 222.857 226.34 222.857C227.11 222.857 227.826 222.467 227.826 221.699L227.816 220.998Z"></path>
<path fill="#0A2540" d="M231.519 221.816C231.764 222.133 232.078 222.391 232.437 222.571C232.796 222.751 233.191 222.848 233.592 222.856C234.199 222.856 234.741 222.647 234.741 222.152C234.741 221.656 234.232 221.568 233.138 221.36C232.043 221.151 230.803 220.852 230.803 219.386C230.803 218.071 231.964 217.162 233.605 217.162C234.817 217.162 235.9 217.657 236.436 218.347L235.393 219.489C235.178 219.207 234.899 218.978 234.58 218.82C234.261 218.663 233.909 218.582 233.553 218.582C232.98 218.582 232.601 218.83 232.601 219.205C232.601 219.649 233.059 219.725 233.905 219.894C235.117 220.142 236.527 220.414 236.527 221.961C236.527 223.391 235.196 224.273 233.553 224.273C232.316 224.273 231.012 223.82 230.385 222.974L231.519 221.816Z"></path>
<path fill="#0A2540" d="M153.044 219.145C153.044 215.953 151.494 213.433 148.526 213.433C145.558 213.433 143.748 215.953 143.748 219.121C143.748 222.875 145.87 224.773 148.929 224.773C150.136 224.805 151.33 224.525 152.395 223.96V221.466C151.442 221.935 150.392 222.17 149.33 222.152C148.117 222.152 147.038 221.729 146.904 220.257H153.022C153.019 220.094 153.044 219.444 153.044 219.145ZM146.865 217.954C146.865 216.546 147.726 215.959 148.514 215.959C149.302 215.959 150.091 216.546 150.091 217.954H146.865Z" clip-rule="evenodd" fill-rule="evenodd"></path>
<path fill="#0A2540" d="M138.926 213.422C138.013 213.418 137.134 213.767 136.473 214.395L136.309 213.621H133.551V228.177L136.679 227.518V223.988C137.307 224.494 138.089 224.772 138.896 224.774C141.136 224.774 143.174 222.961 143.174 219.031C143.17 215.405 141.109 213.422 138.926 213.422ZM138.168 222.03C137.894 222.046 137.62 222.001 137.364 221.9C137.109 221.799 136.88 221.643 136.691 221.443V216.816C136.878 216.611 137.109 216.45 137.367 216.345C137.625 216.24 137.902 216.195 138.18 216.212C139.32 216.212 140.108 217.484 140.108 219.119C140.108 220.754 139.32 222.03 138.168 222.03Z" clip-rule="evenodd" fill-rule="evenodd"></path>
<path fill="#0A2540" d="M129.248 212.698L132.389 212.024V209.491L129.248 210.153V212.698Z" clip-rule="evenodd" fill-rule="evenodd"></path>
<path fill="#0A2540" d="M132.389 213.645H129.248V224.558H132.389V213.645Z"></path>
<path fill="#0A2540" d="M125.889 214.569L125.689 213.644H122.979V224.558H126.107V217.162C126.844 216.201 128.096 216.376 128.484 216.515V213.644C128.084 213.496 126.62 213.221 125.889 214.569Z" clip-rule="evenodd" fill-rule="evenodd"></path>
<path fill="#0A2540" d="M119.626 210.94L116.573 211.587V221.579C116.563 222.004 116.64 222.426 116.799 222.821C116.958 223.215 117.195 223.573 117.497 223.873C117.799 224.173 118.159 224.408 118.556 224.565C118.952 224.722 119.376 224.797 119.802 224.786C120.554 224.82 121.303 224.679 121.991 224.375V221.842C121.591 222.002 119.614 222.576 119.614 220.73V216.302H121.991V213.645H119.614L119.626 210.94Z" clip-rule="evenodd" fill-rule="evenodd"></path>
<path fill="#0A2540" d="M111.165 216.815C111.165 216.328 111.565 216.141 112.245 216.141C113.326 216.163 114.388 216.436 115.346 216.939V214.007C114.36 213.614 113.307 213.415 112.245 213.421C109.689 213.421 108 214.756 108 216.963C108 220.405 112.754 219.858 112.754 221.342C112.754 221.916 112.254 222.101 111.541 222.101C110.344 222.034 109.179 221.692 108.136 221.103V224.074C109.215 224.539 110.378 224.781 111.553 224.785C114.158 224.785 115.946 223.5 115.946 221.267C115.934 217.549 111.165 218.211 111.165 216.815Z" clip-rule="evenodd" fill-rule="evenodd"></path>
<path stroke-miterlimit="10" stroke-width="1.32956" stroke="#EDE8E3" d="M165.76 209.562V228.328"></path>
</g>
<defs>
<linearGradient gradientUnits="userSpaceOnUse" y2="228.192" x2="185.646" y1="218.148" x1="185.686" id="paint0_linear_1_88210">
<stop stop-color="#FFD748"></stop>
<stop stop-color="#FFCD48" offset="0.54"></stop>
<stop stop-color="#FFCB48" offset="1"></stop>
</linearGradient>
<linearGradient gradientUnits="userSpaceOnUse" y2="216.737" x2="187.778" y1="226.022" x1="187.778" id="paint1_linear_1_88210">
<stop stop-color="#FFAD00"></stop>
<stop stop-color="#FF7600" offset="1"></stop>
</linearGradient>
<clipPath id="clip0_1_88210">
<rect transform="translate(108 209.492)" fill="white" height="18.8355" width="128.525"></rect>
</clipPath>
</defs>
</svg>
